<svg version="1.2" xmlns="http://www.w3.org/2000/svg" viewBox="0 0 600 600" width="600" height="600">
	<title>Logo SEVd</title>
	<style>
		.s0 { fill: #6bbd49 } 
		.s1 { fill: #41b14c } 
		.s2 { fill: #1c9f4c } 
		.s3 { fill: #51b74d } 
		.s4 { fill: #2da94c } 
		.s5 { fill: #7dc145 } 
		.s6 { opacity: .2;fill: #51ae53 } 
		.s7 { opacity: .1;fill: #60b864 } 
		.s8 { opacity: 1;fill: #229425 } 
		.s9 { fill: #39a33d } 
		.s10 { opacity: 1;fill: #2a9c2f } 
		.s11 { fill: #56be5d } 
		.s12 { opacity: 1;fill: #173f1a } 
		.s13 { opacity: 1;fill: #2f7c32 } 
		.s14 { opacity: 1;fill: #83c246 } 
		.s15 { opacity: 1;fill: #215425 } 
		.s16 { opacity: .1;fill: #33973a } 
		.s17 { opacity: 1;fill: #67cc72 } 
		.s18 { opacity: .5;fill: #3cab3f } 
		.s19 { opacity: .8;fill: #4eaf50 } 
		.s20 { opacity: .7;fill: #5fb853 } 
		.s21 { opacity: .7;fill: #2c9736 } 
		.s22 { opacity: .2;fill: #121913 } 
		.s23 { opacity: 1;fill: #bea150 } 
		.s24 { fill: #d84719 } 
		.s25 { opacity: .3;fill: #83da89 } 
		.s26 { opacity: .6;fill: #204b20 } 
		.s27 { opacity: 1;fill: #de6d2d } 
		.s28 { opacity: .3;fill: #304526 } 
		.s29 { opacity: .1;fill: #a0b750 } 
		.s30 { fill: #86652b } 
		.s31 { opacity: .3;fill: #288c2b } 
		.s32 { opacity: .7;fill: #db672d } 
	</style>
	<g id="Capa 6 copy 2">
		<path id="Path 0" class="s0" d="m360 479c0.6 0 1 0.4 1 1c0 0.6 1.6 1 3.5 1c3.2 0 3.7 0.4 6.6 5.8c1.8 3.1 3.6 6.7 4 8c0.7 1.7 0.5 2.2-0.6 2.2c-0.8 0-2.1-1.1-2.7-2.5c-0.7-1.4-2.3-2.7-3.5-3c-1.3-0.3-2.7-1.5-3.2-2.8c-0.5-1.2-2.1-3.3-3.5-4.7c-1.5-1.4-2.6-3.1-2.6-3.8c0-0.6 0.4-1.2 1-1.2zm19.5 15.3c0.8 0.4 2.4 0.7 3.5 0.7c1.1 0 2 0.6 2 1.2c-0.1 0.7 1.4 2.4 3.1 3.8c1.8 1.4 3.8 2.4 4.5 2.2c1.1-0.1 0.8 1.9-1.1 8.5c-1.4 4.9-3.6 12.2-4.9 16.3c-1.5 4.4-2.5 6.5-2.5 5c-0.1-1.4-1.1-6.5-2.2-11.5c-1.3-5.9-1.7-9.3-1.1-10c0.7-0.7 0.6-3.1-0.3-7c-0.7-3.3-1.5-6.9-1.9-7.9c-0.4-1.5-0.2-1.8 0.9-1.3z" />
		<path id="Path 1" class="s1" d="m354 439c0.6 0 1 0.4 1 1c0 0.6 0.4 0.8 1 0.5c0.6-0.3 1 0.2 1 1c0 0.8 0.4 1.5 1 1.5c0.6 0 3.3 2.3 6 5c4.2 4.2 4.8 5.3 4 7c-0.6 1.1-0.8 3.4-0.5 5c0.3 1.6 0.4 3.2 0.3 3.4c-0.2 0.2 0.6 1.4 1.7 2.5c1.1 1.2 2.7 2.1 3.5 2.1c0.8 0 2.4 0.6 3.5 1.4c1.1 0.8 3.1 1.5 4.5 1.7c1.5 0.3 3.1 1.6 4.3 3.9c1 1.9 3.3 4.5 5.2 5.8c1.9 1.2 3.7 2.2 4 2.2c0.3 0 0.6-3.3 0.8-7.3q0.3-7.2 0.5 4.5c0.2 9.7-0.1 11.9-1.3 12.3c-0.8 0.3-3.1-0.4-5-1.5c-1.9-1.1-3.5-2.3-3.5-2.8c0-0.4-1.4-2.4-3.2-4.4c-1.8-2.1-3.7-3.8-4.3-3.8c-0.6 0.1-2.2-1.4-3.7-3.2c-1.9-2.3-3.2-3.1-4.3-2.6c-0.8 0.5-1.5 0.4-1.5-0.2c0-0.6-1.9-3.8-4.3-7.3c-2.3-3.4-4.8-7.6-5.6-9.2c-0.7-1.6-2.4-6.1-3.7-10c-1.3-3.9-2.4-7.3-2.4-7.8c0-0.4 0.4-0.7 1-0.7zm6.5 52c0.3 0 2 1.6 3.7 3.7c1.8 2 6 6.4 9.3 9.9c5.8 6 6.1 6.7 8.2 15.8c1.3 5.3 2.3 10.7 2.3 12.1c0 1.8-1.3 0.1-4.3-5.8c-2.3-4.5-6.5-11.4-9.4-15.2c-2.8-3.9-7.1-8.5-9.5-10.4c-2.5-1.9-3.8-3.6-3.2-4c0.6-0.3 1.4-1.8 1.8-3.4c0.3-1.5 0.8-2.7 1.1-2.7z" />
		<path id="Path 2" class="s2" d="m366 435c1.9 0 5.5 1 8 2.2c2.5 1.2 6.6 4.4 9.3 7c2.6 2.6 6 7.6 7.7 11.1c2.3 4.8 3 7.6 3 18.2l-2.5-3.2c-1.9-2.6-3-3.2-4.8-2.7c-1.7 0.5-2.7-0.1-4.3-2.2c-1.2-1.6-3.8-4.7-5.8-6.9c-2-2.2-5.2-6.8-7.1-10.2c-1.9-3.5-3.8-7.5-4.2-9c-0.3-1.6-1.1-3.1-1.7-3.5c-0.6-0.4 0.5-0.8 2.4-0.8z" />
		<path id="Path 3" class="s3" d="m335.1 452c1.1 0 2.9 1.6 4.4 4c1.4 2.2 3.2 4 4 4c0.8 0 1.5 0.6 1.5 1.3c0.1 0.6 1.4 2.8 3.1 4.7c1.7 1.9 4.8 5.4 7 7.8c2.1 2.3 3.9 5 3.9 6c0 0.9 1.1 2.8 2.6 4.2c1.4 1.4 3 3.5 3.5 4.8c0.5 1.2 1.9 2.4 3.1 2.7c1.3 0.3 2.9 1.6 3.5 3c0.7 1.4 2 2.5 2.8 2.5c0.8 0 1.9 0.8 2.4 1.7c0.5 1 1.2 3.4 1.6 5.3c0.4 1.9 1.5 4 2.4 4.6c1.4 1 1.4 1.2 0.1 1.9c-1.1 0.5-3.2-1.1-7.5-5.7c-3.3-3.6-8.8-9.5-12.3-13.2c-3.4-3.6-6.2-6.9-6.2-7.3c0.1-0.5-1.8-2.6-4.2-4.9c-2.4-2.3-5.1-5.4-6-7c-0.9-1.6-2.5-3.1-3.5-3.3c-1-0.2-3-1.2-4.6-2.2c-1.5-1.1-2.7-1.5-2.7-0.9c0 0.6-0.5 1-1 1c-0.6 0-1-2.4-1-5.3c0-2.8 0.3-6.2 0.6-7.5c0.4-1.3 1.4-2.2 2.5-2.2zm36.1 22c0.7 0 2.3 1.4 3.5 3c1.3 1.7 2.9 3 3.5 3c0.7 0 2.6 1.6 4.3 3.6c1.6 2.1 4.1 4.8 5.5 6.1c1.4 1.3 3.5 2.6 4.7 2.9c1.3 0.2 2.3 1 2.3 1.7c0 0.6-0.3 2.7-0.7 4.5c-0.5 1.8-1.3 3.4-1.8 3.6c-0.6 0.3-2.5-0.8-4.2-2.2c-1.8-1.5-3.3-3.3-3.3-3.9c0-0.7-1-1.3-2.3-1.3c-1.2 0-2.9-0.5-3.8-1.2c-1-0.7-3.3-5.1-5.3-9.8c-2-4.7-3.6-8.8-3.6-9.2c0-0.5 0.6-0.8 1.2-0.8z" />
		<path id="Path 4" class="s4" d="m355.1 431c0.6 0 3.8 0.9 7.2 1.9c4.9 1.5 5.6 2 3.2 2c-1.7 0.1-2.5 0.5-1.9 0.9c0.6 0.4 1.4 1.9 1.7 3.5c0.4 1.5 2.3 5.5 4.2 8.9c1.9 3.5 5.1 8.1 7.1 10.3c2 2.2 4.6 5.3 5.8 6.9c1.6 2.1 2.6 2.7 4.3 2.2c1.8-0.5 2.8 0.1 6.8 5.6l0.6-4.9c0.4-3.6 0.6-2.4 0.7 4.9c0.1 5.4 0 9.8-0.3 9.8c-0.3 0-2.1-1-4-2.3c-1.9-1.2-4.2-3.8-5.2-5.7c-1.2-2.3-2.8-3.6-4.3-3.9c-1.4-0.2-3.4-0.9-4.5-1.7c-1.1-0.8-2.7-1.4-3.5-1.4c-0.8 0-2.3-0.7-3.2-1.7c-0.9-1-1.7-2.1-1.7-2.6c-0.1-0.4-0.3-2.1-0.6-3.7c-0.3-1.6-0.1-3.9 0.5-5c0.8-1.7 0.2-2.8-4-7c-2.8-2.8-5.5-5-6-5c-0.6 0-1-0.8-1-1.8c0-0.9-0.3-1.4-0.7-1c-0.4 0.4-1.6-0.2-2.6-1.5c-1-1.2-1.8-2.6-1.8-3c-0.1-0.5 0.4-1.7 1-2.8c0.7-1 1.6-1.9 2.2-1.9zm-18.2 35.9c1.4 1 3.4 2 4.4 2.2c1 0.2 2.6 1.7 3.5 3.3c0.9 1.6 3.6 4.7 6 7c2.4 2.3 4.3 4.7 4.2 5.3c0 0.7 0.4 1.3 1 1.3c0.5 0 1.7 1.1 2.5 2.5c1 1.7 1.3 3.5 0.7 5.5c-0.4 2-1.3 3-2.5 3c-0.9 0-5.6-4.2-10.3-9.3c-4.7-5-9.7-11.3-11-13.9c-1.4-2.9-2.2-5.6-1.8-6.8c0.6-2 0.7-2 3.3-0.1z" />
		<path id="Path 5" class="s5" d="m339.3 443c0.6-0.1 1.9 0.7 2.8 1.7c0.9 1 2.6 3.7 3.8 6c1.1 2.4 5.8 8.9 10.4 14.6c4.6 5.6 9.1 11.4 11.7 15.7h-3.3c-2.6-0.1-4.2-1.1-8.4-5.8c-2.8-3.1-6.5-7.3-8.2-9.2c-1.7-1.9-3-4.1-3.1-4.8c0-0.6-0.7-1.2-1.5-1.2c-0.8 0-2.6-1.8-4-4c-1.4-2.2-3.2-4-4-4c-0.8 0-1.5-0.2-1.6-0.5c0-0.3 0.9-2.4 2.1-4.5c1.1-2.2 2.6-4 3.3-4z" />
		<path id="Path 6" class="s6" d="m445 49.4c16.2 0 22.8 0.2 14.5 0.3c-8.3 0.2-21.5 0.2-29.5 0c-8-0.1-1.2-0.3 15-0.3z" />
		<path id="Path 7" class="s7" d="m488 49.4c8 0 11.4 0.2 7.5 0.3c-3.9 0.2-10.4 0.2-14.5 0c-4.1-0.1-1-0.3 7-0.3z" />
		<path id="Path 8" class="s0" d="m220 79c0.3 0 5.1 2.6 10.8 5.8c5.7 3.1 9.6 5.8 8.8 6c-1 0.1-1.6 1.2-1.6 2.7c0 1.4-0.4 2.3-1 2c-0.6-0.3-1 1.8-1.2 11l-2.4-5c-1.3-2.8-2.4-4.5-2.4-4c0 0.5-0.5 0.2-1-0.8c-0.6-0.9-1.6-1.7-2.3-1.7c-0.6 0-2.3-1.3-3.7-2.8c-1.4-1.6-2.9-5.1-3.5-8c-0.6-2.9-0.8-5.2-0.5-5.2zm1.6 31c0.2 0 3.1 2.7 6.4 6c3.3 3.3 6.4 6 7 6c0.6 0 1 4 0.9 10.3c-0.1 7.8-0.3 9.3-0.9 6.2c-0.6-3.2-2.3-5.4-16-18.5l1.1-5c0.6-2.8 1.2-5 1.5-5zm62.1 56.1c1.3-0.1 2.3 0.1 2.3 0.4c0 0.3-1.5 3.5-3.2 7.2c-1.8 3.8-3.3 6.9-3.3 7c0 0.1-4.3 1.3-9.5 2.7c-5.2 1.4-11.2 3.2-13.3 4c-3.4 1.5-3.7 1.5-4.4-0.2c-0.3-0.9-1.1-2-1.7-2.5q-1.1-0.7 0.4-1.7c1.3-0.9 1.3-1.1 0-2.1c-1.1-0.8-1.2-1.2-0.3-1.5c0.7-0.2 1.3-0.8 1.3-1.4c0-0.6-0.9-1-2-1c-1.1 0-1.9-0.6-1.7-1.3c0.2-0.6 3.9-2.4 8.3-3.9c4.3-1.4 11.7-3.3 16.4-4.1c4.7-0.8 9.5-1.6 10.7-1.6zm-181.3 37c3.1 2.4 5.8 5.2 6.1 6.1c0.3 1 1 1.6 1.5 1.3c0.6-0.3 1.6 0.4 2.3 1.4c0.6 1.1 3 2.9 9.2 6.2l-5.2-0.3c-2.8-0.2-5.5 0-5.9 0.4c-0.4 0.5-1.8 0.8-3.1 0.8c-1.7 0-2.3 0.6-2.4 2.2q0 2.3-2-2.7c-1.1-2.8-2.7-7.3-3.4-10c-0.8-2.8-1.7-6.1-2.1-7.4c-0.6-2.2-0.1-2 5 2zm37-2.7c3.8 0.1 5.2 0.6 6 2.1c0.6 1.1 2.8 4.6 4.9 7.7c2 3.2 3.7 6.2 3.7 6.8c0 0.6 0.5 1 1 1c0.6 0 1 0.4 1 1c0 0.6-4.1 0.9-10.7 0.8c-6-0.1-8.9-0.3-6.5-0.5c2.9-0.2 4.2-0.8 4.2-1.8c0-0.8-0.4-1.7-1-2c-0.6-0.3-1-1.6-1-3c0-1.6-0.6-2.5-1.5-2.5c-0.8 0-1.9-1-2.4-2.3c-0.5-1.2-1.9-3-3-4c-1.2-0.9-3.3-1.8-4.8-1.8c-2.2-0.2-1.9-0.3 1.2-0.9c2.2-0.4 6.2-0.7 8.9-0.6zm57.3 12.6c0.7 0 1.5 1.1 1.8 2.5c0.3 1.4 0.3 3.2 0 4c-0.3 0.8 0 1.7 0.5 2c0.6 0.3 0.7 1.1 0.4 1.7c-0.3 0.7-0.1 2.4 0.5 3.8c1.1 2.2 0.5 3.8-4.7 14c-3.2 6.3-6.5 13.4-7.3 15.8c-0.8 2.3-1.6 4.2-1.9 4.2c-0.3 0-1.6-1.8-3-4c-1.4-2.2-3.1-4-3.7-4c-0.7 0-1.2-0.6-1-1.2c0.1-0.7-0.8-1.4-2-1.5c-2.2-0.3-2.2-0.5 2.3-9.6c2.5-5 7.3-13.4 10.7-18.5c3.3-5 6.7-9.2 7.4-9.2zm-14.9 105c0.2 1.4 1.2 5.9 2.3 10c1.1 4.1 3.6 11.3 5.6 16c3.3 8 3.5 8.9 2.8 16c-0.3 4.1-0.7 8.3-0.8 9.2c-0.1 1-0.5 1.8-0.9 1.8c-0.5 0-0.8-0.6-0.8-1.3c-0.1-0.7-0.6-0.5-1.3 0.5c-1.1 1.7-1.3 1.7-2.8 0c-0.9-0.9-3.8-6-6.4-11.2c-2.6-5.2-5.4-11.2-6.1-13.3c-1.2-3.3-1.2-3.7 0.2-3.5c1.2 0.2 1.6-1 2-5.7c0.2-3.8 0.9-6.4 1.9-7c0.8-0.6 2-3.9 2.7-7.5c0.8-4 1.4-5.5 1.6-4zm-39.8 4.1c1.4 0 4.8 0.9 7.5 1.8c2.8 1 5.5 2.5 6 3.4c0.7 1.2 0.5 2.1-1 3.7c-1.1 1.2-3.3 2.9-5 3.7c-2.9 1.4-3.1 1.4-5.5-1.4c-1.4-1.6-3.6-4.4-5-6.2c-2.1-2.8-2.3-3.5-1-4.2c0.8-0.5 2.6-0.8 4-0.8zm-22 10.9c0.8-0.1 2.9 1.2 4.5 2.7c1.7 1.5 3.4 3.6 3.8 4.5c0.4 1 1.4 1.8 2.2 1.8c0.8 0 1.8 1 2.1 2.2c0.6 1.9-0.4 3.3-5.7 8c-5.3 4.7-6.5 5.4-7.1 4c-0.4-0.9-2.4-3.5-4.4-5.7c-2.1-2.2-3.7-4.6-3.6-5.3c0.1-0.6-0.8-1.2-2-1.2c-2 0-1.5-0.7 3.2-5.5c3-3 6.1-5.5 7-5.5zm337.2 15h3.1c1.8 0 5 0.9 7.2 1.9c2.2 1 6 3.5 8.5 5.5c2.5 2.1 6 5.6 7.7 7.9c1.8 2.3 3.3 4.5 3.3 4.9c0 0.5-0.7 0.6-1.5 0.3c-1.2-0.4-1.6 0.5-2 8.6l-4-3.4c-2.2-1.8-4.7-3.6-5.5-3.9c-0.8-0.3-3.3-3.5-5.5-7.2c-2.2-3.7-4.7-6.9-5.5-7.2c-0.8-0.3-2.5-2-3.7-3.9zm-142.6 3h4.5c3.2 0 4 0.3 3 0.9c-1.3 0.9-1.4 4.1-0.8 24.3c0.5 15.3 0.4 25.3-0.3 29.3c-0.6 3.3-1.2 6.8-1.5 7.7c-0.2 1-1.7 2-3.2 2.2c-1.5 0.3-4.8 0.8-11.7 1.8l0.8-28.4c0.4-15.6 1.1-30.4 1.5-32.8c0.6-3.5 0.9-1.3 1.5 10c0.3 7.9 0.7 20.9 0.7 28.7c0 8.5 0.4 14.5 1 14.8c0.5 0.2 1.4-0.8 2-2.3c0.6-1.5 1.5-11.5 2.1-22.2c0.6-10.8 0.9-22.8 0.7-26.8zm-202 14.6c0 0.2-0.1 1.1-0.4 2.1c-0.2 1-0.5 2-0.6 2.3c-0.2 0.3-0.7 1.5-1.1 2.8c-0.5 1.3-1.7 2.5-2.6 2.8c-1 0.2-1.5 1-1.2 1.7c0.3 0.7-0.8 2.5-2.5 4c-2 1.7-2.6 2.7-1.6 2.7c0.8 0 1.5 0.4 1.5 0.8c0 0.4-2.6 0.3-5.8-0.1c-3.1-0.5-6.1-1.2-6.5-1.5c-0.5-0.4 0.2-2.3 1.5-4.2c1.3-1.9 3.4-4.6 4.8-6c1.3-1.4 5.1-3.7 8.4-5.1c3.3-1.4 6-2.5 6.1-2.3zm163.9 2.7c0.7 2.4 1.6 3.6 2.6 3.5c1.2-0.2 1.5 0.7 1.4 4.2c0 2.5-0.6 8.3-1.3 13c-0.7 4.7-1.7 11.9-2.2 16c-0.6 4.1-1.1 9.9-1.2 12.8c-0.1 2.9-0.6 5.2-1.2 5.2c-0.5 0-0.8 1.2-0.5 2.7c0.5 2.5 0.3 2.6-2.5 2.1c-1.6-0.3-8.5-2.2-15.2-4.2c-6.8-2-14.9-5-18-6.8c-5.8-3.1-5.8-3.2-3.5-4.7c1.3-0.9 2.3-2.1 2.2-2.8c0-0.7-0.7-1.5-1.5-1.8c-0.8-0.3-1.5-0.9-1.5-1.5c0-0.5 0.9-1.2 2-1.5c1.2-0.3 2-1.3 2-2.5c0-1.8 0.5-1.7 6.8 1.5c3.7 1.8 8.7 4.3 11.2 5.5c2.5 1.1 4.7 2 5 2c0.3 0 0.8-3.2 1.3-7.2c0.4-4 1.1-11.6 2.2-26.3l1 32l3.5 0.3c3.3 0.3 3.5 0.1 3.7-3c0.1-1.8 0.6-11.8 1.1-22.3c0.5-10.4 1-19.2 1.2-19.5c0.1-0.3 0.8 1.2 1.4 3.3zm195.1 20.1c1.1 0.8 5.8 4 10.5 7c4.8 3.1 10.9 6.1 14 6.9c4.3 1.1 5.6 1.9 5.8 3.6c0.1 1.2 1.1 2.4 2.2 2.7c1 0.2 2.2 1.1 2.5 2c0.3 0.8 0.3 2.1 0 2.9c-0.4 1.1-2.8 1.7-9.7 2.1c-5.1 0.3-10.9 0.4-12.8 0.2c-3.4-0.4-3.3-0.5 0.8-0.6c2.3-0.1 4.2-0.5 4.2-0.9c0-0.4-0.4-1.9-0.8-3.2c-0.4-1.3-1.9-3-3.4-3.7c-1.6-0.8-3-2.4-3.3-3.6c-0.3-1.3-3.2-5.2-6.5-8.8c-3.4-3.6-6-6.9-5.8-7.4c0.1-0.4 1.1-0.1 2.3 0.8zm-265.6 51.6c0.2 0.8 1.3 2.4 2.4 3.5c1 1.1 2.7 3.7 3.8 5.8c1 2 1.9 4.3 1.9 5c0 0.7 1.6 2.5 3.5 4c3.2 2.4 3.5 3.2 3.4 7.5c-0.1 2.6-0.4 5.8-1.6 9.7l-0.8-3c-0.5-1.6-1.4-4-2.2-5.2c-0.7-1.3-2.2-2.3-3.3-2.3c-1.1 0-2.9-1.2-4-2.7c-1.1-1.5-2.9-3.8-4-5c-1.1-1.3-2-2.8-2-3.5q0-1.3-1 0.2c-0.8 1.2-1 0.9-1-1.2c0-1.5 1-5.4 2.2-8.5c1.3-3.3 2.4-5.1 2.7-4.3zm16.8 36.2c0.1 0.2 0.5 2.1 0.8 4.3c0.4 2.2 0.9 6.3 1.1 9c0.3 2.8 0.4 6 0.4 7.3c0 1.2 0.8 2.6 1.8 3.1c1.4 0.7 0 1.9-7.3 6.6c-4.9 3.1-12.8 7.9-17.5 10.6c-4.7 2.7-8.6 5-8.7 4.9c-0.2 0 1.4-2.3 3.5-5.2c2.1-2.9 4.5-6.5 5.5-8c0.9-1.5 2.5-3.8 3.5-5c0.9-1.2 2.9-3.3 4.3-4.7c1.5-1.4 4-5.1 5.7-8.1c1.6-3 3.8-7.6 4.8-10.3c1-2.6 1.9-4.6 2.1-4.5z" />
		<path id="Path 9" class="s1" d="m249.8 100c0.9-0.1 2.4 0.6 3.2 1.5c1.3 1.4 1.2 1.6-1 1.5c-1.9-0.1-2.3 0.2-1.4 1.2c0.8 0.9 0.8 3.9 0.2 9.8c-0.5 4.7-1 11.3-1.1 14.7c-0.1 3.4-0.6 6.5-1 7c-0.4 0.4-0.7 1.6-0.7 2.5c0 1-0.3 1.8-0.8 1.8c-0.4 0-0.8-3.9-0.9-8.8c-0.1-4.8-0.5-9.4-0.9-10.2c-0.4-0.8-0.6-2.8-0.5-4.5c0.1-1.7 0.6-4.3 1.1-6c0.4-1.7 1.1-4.7 1.5-6.8c0.4-2.6 1.1-3.7 2.3-3.7zm-29 21.9c0.9 0.5 4.3 3.6 7.5 6.8c4.6 4.6 6 6.8 6.7 10.3c0.5 2.5 0.9 6 1 11l-2.3-2.3c-1.2-1.2-4.9-5.4-8.1-9.2c-3.3-3.9-6.4-6.9-7-6.8c-0.7 0.2-1-1-0.8-3c0.2-1.7 0.5-4.2 0.8-5.5c0.4-1.8 0.9-2 2.2-1.3zm192.5 63c2.9 2.6 3 3.1 1.7 4.6c-1.4 1.4-1 1.6 4 1.6c3.7 0 4.8 0.3 3.5 0.8c-1.9 0.8-1.9 0.8 0.5 1.5c1.4 0.5 3.6 0.5 5 0.1c1.4-0.3 4.2-1 6.2-1.6c3.5-0.8 3.8-1.2 4-8.4l0.7 3.5c0.4 1.9 1 4.1 1.4 4.8c0.3 0.6 0.3 1.2-0.1 1.2c-0.4 0-2 1-3.6 2.2c-1.6 1.3-4.5 3.8-6.5 5.6c-2 1.8-3.8 3.3-4.1 3.2c-0.3 0-1.3 1.4-2.3 3c-1.6 2.8-2.1 3-7 2.9c-2.8-0.1-4.5-0.3-3.7-0.5c0.8-0.2 2.1-2.1 2.9-4.2c0.7-2 2.1-4.5 3-5.5c0.9-0.9 1.4-1.9 1.1-2.2c-0.3-0.3-4-1.1-8.3-1.8c-6-0.9-7.7-1.5-7.5-2.7c0.2-0.8 1.2-1.6 2.3-1.8c1.1-0.1 3.1-0.5 7-1.3l-2.5-2.4c-1.7-1.7-2.2-3-1.7-4c0.7-1.4 1.3-1.2 4 1.4zm-32.1 27.1c0.5 0 1.7 1 2.8 2.3c1 1.2 1.9 2.8 2 3.5c0 0.6-2.4 3.1-5.3 5.4c-2.8 2.4-8.3 7-19.2 16.7l-3.2-2.7c-2.5-2.1-3-3.1-2.2-4.4c0.5-1 6.2-6.1 12.6-11.3c6.5-5.2 12.1-9.5 12.5-9.5zm-230.7 14.7c1.1 0.3 5 2.1 8.7 3.9c3.8 1.9 7 3.8 7.3 4.4c0.3 0.6-1.2 1-3.8 0.9c-2.3 0-10.1 0-17.2 0.1c-11.8 0.1-13.1-0.1-14.5-1.8c-1.2-1.6-3-2.1-9.4-2.3c-6.9-0.4-8-0.2-9.2 1.6c-1.4 1.9-1.4 1.9-1.4-0.7c0-1.6 0.4-3 1-3.3c0.5-0.3 2.7-0.1 4.7 0.5c2.8 0.7 4.5 0.6 6.3-0.4c1.7-0.9 5.6-1.2 12.7-0.9c8.1 0.2 10.6 0 11.5-1.2c0.8-0.8 2.1-1.2 3.3-0.8zm229.7 44.3c0.4 0 2.4 0.7 4.3 1.5c3.1 1.3 3.3 1.7 2.2 3.2c-0.6 1-2.6 3-4.2 4.5c-2.4 2.3-3.9 2.8-7.8 2.8c-2.7 0-5-0.5-5.4-1.2c-0.4-0.8 0.2-1.7 1.2-2.3c1.1-0.6 3.5-2.7 5.4-4.7c1.9-2.1 3.8-3.8 4.3-3.8zm-38.7 44.1l-3.3 2.5c-1.7 1.3-3.2 3.1-3.2 3.9c0 0.8-0.6 1.7-1.3 1.8c-0.6 0.2 1.3 0.8 4.3 1.2c5 0.8 4.1 0.9-9 1.6c-10.5 0.6-14.6 1.1-15 2.1c-0.2 0.7-1 1.9-1.7 2.6c-0.7 0.6-1.3 1.4-1.3 1.7c0 0.3 1 0.7 2.2 0.9c1.3 0.2-5.5 0.4-15 0.5c-9.4 0-17.2 0-17.2-0.1c-0.1-0.2 1.4-1.9 6.5-7.3l12.5-0.5c10.1-0.5 11.9-0.8 6-2.5l3.7-3.8c3.7-3.6 4.1-3.7 10.5-3.7c3.8 0 7-0.3 7.2-0.7c0.2-0.5 3.5-0.7 14.1-0.2zm-179.3 26c1.8-0.1 2.9 0.5 3.1 1.5c0.1 0.8 0 2.9-0.4 4.7c-0.7 3.1-0.7 3.1-0.8 0.5c-0.1-2.4-0.4-2.7-2.3-2c-1.2 0.4-3.8 2.6-5.7 5c-2 2.3-3.9 4.2-4.3 4.2c-0.5 0-2.5 1.6-4.5 3.5c-2.1 1.9-4.9 4-6.3 4.6c-1.4 0.6-3 1.4-3.6 1.8c-0.6 0.3-3.8 2.4-7 4.6c-3.2 2.2-7.7 5.5-9.9 7.5c-2.2 2-4 4.5-4 5.5c0 1.4 0.9 2.2 3 2.6c1.8 0.4-0.8 0.7-6.2 0.8c-5.6 0.1-9.3-0.3-9.3-0.9c0-0.6-0.7-1-1.5-1c-0.9 0-0.2-1.1 1.8-2.7c1.7-1.5 3.4-3 3.7-3.4c0.3-0.3 2.5-1.8 5-3.2c2.5-1.5 5.3-2.7 6.3-2.7c0.9 0 2.3-0.8 3-1.9c0.6-1 3.2-4.2 5.7-7.1c2.5-2.9 5.3-6.1 6.3-7.1c0.9-1.1 1.7-2.6 1.7-3.4c0-0.9 3.2-3 7.8-5.2c4.2-2 9.5-4.2 11.7-4.9c2.2-0.7 5.2-1.3 6.8-1.3zm187.2 0.4l0.8 3.5c0.5 1.9 0.6 3.7 0.2 4c-0.4 0.3-11.3 0.5-24.3 0.6c-13 0-17.7-0.1-10.3-0.3c13.4-0.4 13.4-0.4 16.4-3.3c1.6-1.7 2.6-3.1 2.1-3.2c-0.5-0.1 2.7-0.4 7.1-0.7zm103 6.8c4.4 0.1 5.2 0.5 7 3.4c1.1 1.8 2.7 3.4 3.5 3.7c0.8 0.2 3.3 3.5 5.5 7.1c2.2 3.7 4.7 7 5.5 7.3c0.8 0.3 4.3 2.9 7.8 5.8c3.4 3 6.2 5.8 6.2 6.4c0 0.5 1.9 3.7 4.3 7.1c2.3 3.4 5.2 7 6.5 8c1.4 1.2 2 2.6 1.7 3.9c-0.3 1.1-1.2 2-2 2c-0.8 0-1.3-0.5-1-1c0.3-0.6-0.3-1.2-1.2-1.4c-1-0.2-5.5-2.7-10.1-5.7c-4.5-3-7.6-5.5-6.7-5.7c0.8-0.1 1.5-0.7 1.5-1.2c0-0.6-0.3-1-0.7-1c-0.5 0-1.9-1.8-3.3-4c-1.4-2.2-2.8-4-3.2-4c-0.5 0-0.8-0.6-0.8-1.3c0-0.7-1.4-2.7-3-4.5c-1.7-1.8-3.3-3.2-3.7-3.2c-0.5 0-1.2-0.8-1.8-1.9c-0.5-1-2.1-3.4-3.5-5.2c-1.4-1.8-4.7-5.4-7.5-8.1c-3.2-3.2-5.9-4.9-7.5-4.9c-2.3-0.1-2.3-0.1-0.5-1c1.1-0.4 4.2-0.7 7-0.6zm-94.9 2.7c1.1 0 4.7 0.3 14.3 1.5l-0.6 3c-0.3 1.6-1 3.5-1.4 4.2c-0.6 0.8-0.4 1.4 0.4 1.7c0.6 0.3 3.7 0.7 6.7 0.9c3 0.1-0.7 0.4-8.2 0.5c-8.7 0.1-13.8-0.2-13.8-0.8c0-0.6 0.9-1 2-1q2 0 3-3c0.6-1.7 1.5-3 2-3c0.6 0 1-0.5 1-1c0-0.6-1.3-1-3-1c-1.6 0-3.3-0.5-3.6-1c-0.3-0.6 0.2-1 1.2-1zm-256.8 1.1c0.6-0.1 1.8 1.1 2.6 2.6c0.8 1.5 2.4 3.7 3.5 4.8c1.2 1.1 2.2 2.5 2.1 3.2c0 0.7-2.8 2.6-6.2 4.3c-3.5 1.6-6.9 3-7.5 3c-0.7 0-1.1-0.6-0.9-1.3c0.2-0.7-0.9-2.4-5.3-6.2l5.2-5.1c2.9-2.8 5.8-5.2 6.5-5.3zm330.6 11.8c1.7 0 6.7 1.8 11.1 4c4.4 2.2 10.3 5.8 13 8c2.8 2.2 6.9 5.5 9.2 7.3c2.3 1.8 4.2 3.7 4.2 4.3c0 0.5 2.7 3.9 6.1 7.5c3.3 3.5 6.2 7.5 6.5 8.7c0.3 1.3 1.9 2.9 3.5 3.8c1.6 0.8 3 1.8 3 2.2c0 0.4 0.2 1.8 0.5 3c0.5 2.2 0.3 2.3-8.2 2.1c-4.9 0-10.2-0.4-11.8-0.8c-2.7-0.7-2.5-0.8 1.8-0.9c2.6-0.1 4.7-0.5 4.7-0.9c0-0.4-0.8-2.1-1.8-3.7c-1-1.7-4.2-5.1-7.1-7.5c-2.8-2.5-6.5-6.4-8.1-8.8c-1.7-2.3-4.2-4.8-5.7-5.4c-1.6-0.6-3-1.1-3.3-1c-0.3 0.1-1.4-0.8-2.5-1.9c-1.1-1.1-2.4-2-3-1.9c-0.5 0-2.2-1.8-3.7-4c-1.6-2.2-2.8-4.5-2.8-5c0-0.6-1.4-2.2-3-3.5c-1.6-1.4-3.7-2.5-4.5-2.5c-0.8 0-1.7 0.8-1.9 1.7q-0.4 1.7-0.7-0.8c-0.1-1.4 0.1-2.9 0.6-3.3c0.5-0.3 2.2-0.6 3.9-0.7zm-150.5 28.3c0.8 0.1 2 1.7 2.6 3.6c0.5 1.8 1.8 3.5 2.8 3.7c1.2 0.3 1.8 1.8 2.2 5c0.4 3.4 1 4.6 2.5 5c1.4 0.3 2 1.3 2 6l-5.7-0.8c-3.2-0.5-6.5-1.5-7.3-2.3c-0.8-0.8-1.8-4.1-2.1-7.2c-0.4-3.3-0.2-7.4 0.4-9.5q1.1-3.8 2.6-3.5zm42.3 5.1c0.6 0.8 0.8 0.7 0.8-0.3c0.1-0.9 0.6-0.4 1.1 1c0.5 1.3 1.4 5.3 2.9 15h3.5c3 0 3.4 0.3 3 2c-0.3 1.1 0 2 0.5 2c0.6 0 1 1.1 1 2.5c0 1.3 0.6 2.5 1.3 2.4c0.7 0 0.4 0.8-2.8 4.1l3.5 0.1c3.3 0 3.3 0.1-1.5 1.4c-2.7 0.8-6.9 1.4-9.2 1.4c-2.4 0.1-4.3-0.4-4.3-0.9c0-0.6-0.6-1.6-1.2-2.3c-0.8-0.7-3.8-1.2-7.3-1.2c-5.9 0-6-0.1-5.7-2.8c0.1-1.9-0.3-2.7-1.3-2.7c-0.8 0-1.5-0.5-1.5-1c0-0.6 1.2-1.2 2.8-1.5c1.5-0.2 4.4-0.7 6.5-1c2-0.3 3.9-1.1 4.1-1.8c0.2-0.7 1-4.9 1.7-9.4c0.8-4.5 1.7-7.7 2.1-7zm-78.9 29.7c1.4 0 2.9 1.1 4 3c1.4 2.5 1.5 3 0.2 3c-0.8 0-1.5 0.5-1.6 1.2c0 0.7-0.2 2.3-0.5 3.5c-0.2 1.3-1.7 3.6-3.4 5.3c-1.6 1.6-3 3.3-3 3.7c0 0.4-0.7 2.6-1.6 4.8c-1.5 3.5-1.8 3.7-2.5 2c-0.4-1.1-0.8-4.8-0.8-8.3c-0.1-3.9 0.5-7.4 1.5-9.5c0.9-1.8 2.5-4.5 3.6-6c1.1-1.6 2.8-2.7 4.1-2.7zm-7.9 39c0.2 0 0 3.3-0.3 7.4c-0.5 6.5-0.4 7.5 1.2 8c1.3 0.4 1.6 1.3 1.2 4.1c-0.4 2.8-0.2 3.5 1.3 3.5c1.2 0 0.4 1.2-2.8 4c-2.5 2.2-5.2 4-6 4c-1.1 0-1.6-1.3-1.7-4.3c-0.1-2.3 0.4-4.9 1.1-5.7c0.8-0.9 2.1-4.7 3-8.5c1-3.9 1.5-7.7 1.2-8.5c-0.4-0.9-0.1-2.1 0.5-2.8c0.6-0.7 1.2-1.2 1.3-1.2zm-34.7 10.2c0.1 1 1 1.8 1.8 1.8c0.8 0 2.3 1.3 3.3 3c1.1 1.9 2.5 3 4 3c1.9 0 2.2 0.5 2.2 4.2c0 2.4-0.8 5.6-3.8 10.3l-0.6-3.3c-0.4-2.3-1-3.1-2.1-2.7c-0.9 0.3-1.7-0.3-2-1.5c-0.4-1.7-0.8-1.8-2-0.8c-0.9 0.7-1.7 1-1.8 0.8c-0.1-0.3 0-4.1 0.2-8.5c0.2-4.4 0.6-7.2 0.8-6.3z" />
		<path id="Path 10" class="s2" d="m257.1 108c1.3 0 2.8 1.8 4.8 5.8c1.6 3.1 3.4 8.2 4 11.2c0.7 3.7 0.7 7.5 0 11.5c-0.5 3.3-2 8.3-3.3 11c-1.3 2.8-3.2 6.1-4.4 7.5c-1.1 1.4-2.3 2.3-2.6 2c-0.4-0.3-0.8-10.4-1-22.5c-0.2-12.1-0.1-23 0.1-24.3c0.3-1.3 1.2-2.2 2.4-2.2zm-39.1 32c0.5 0 2.9 1.7 5.2 3.7c2.4 2.1 5.2 4.9 6.3 6.2c1.1 1.3 2.8 3.1 3.7 4c1 0.8 1.8 2.3 1.8 3.3c0 1 0.7 1.8 1.5 1.8c0.8 0 1.5 0.6 1.5 1.3c0 0.6-0.5 1.8-1.2 2.5c-0.7 0.6-2 1.2-3 1.2c-1 0-4.3-1.6-7.3-3.5c-3.9-2.5-6.1-4.7-7.5-7.7c-1.1-2.4-2-6.2-2-8.5c0-2.4 0.4-4.3 1-4.3zm-80 99.8c4.7 0.2 8.9 0.9 9.5 1.3c0.5 0.5 2.5 0.9 4.2 0.9c1.8 0 4.4 0.4 5.8 1c1.4 0.6 2.5 1.3 2.5 1.8c0.1 0.4-2.8 2-6.2 3.6c-5.2 2.3-7.6 2.8-13.8 2.8c-6.3-0.1-8.5-0.6-13.8-3.1c-3.4-1.7-6.5-3.8-6.9-4.6c-0.4-0.9-0.5-1.8-0.3-2c0.3-0.3 2.7-0.9 5.5-1.4c2.7-0.5 8.8-0.6 13.5-0.3zm290.7 92.2q1.1 0 0.7 4.3c-0.3 2.3-2.2 8.5-4.3 13.7c-2 5.2-5.5 12.6-7.8 16.5c-2.2 3.9-7 10.6-10.5 15c-3.6 4.4-9.6 10.8-13.4 14.3c-3.8 3.4-7.6 6.2-8.4 6.2c-0.8 0-2.3-0.5-3.4-1.2c-1-0.7-1.6-2-1.4-2.8c0.3-0.8-0.5-2-1.6-2.6c-1.5-0.7-2-1.8-1.8-4c0.1-2.1 2.3-5.1 7.5-10.5c3.9-4.1 8.7-9.4 10.4-11.7c1.8-2.3 3.3-4.4 3.3-4.7c0-0.3 1.3-2.4 2.9-4.7c1.5-2.4 4.3-7.4 6-11.3c1.8-3.9 3.7-8 4.4-9.3c0.9-1.7 3.3-3 8.7-4.7c4.1-1.3 8-2.4 8.7-2.5zm-265 16.3c0.2 1.8-0.3 5.2-1.1 7.7c-0.8 2.5-3.6 7.3-6.1 10.8c-2.5 3.4-6.6 7.6-9.3 9.4c-2.6 1.7-6.6 4-9 5c-2.4 1-5.5 1.6-7.2 1.3c-1.7-0.3-3-0.8-3-1.2c0-0.5 1.1-1.4 2.5-2c1.5-0.8 2.3-1.9 2-2.8c-0.3-0.8-0.1-1.5 0.5-1.5c0.5 0 1-0.4 1-1c0-0.6 1.8-3.4 4-6.3c2.2-2.8 5.8-6.6 8-8.2c2.2-1.6 4-3.3 4-3.8c0-0.4 0.6-0.7 1.2-0.7c0.7 0 2.8-1.8 4.5-4c1.8-2.3 4.3-4.5 5.5-5c1.9-0.7 2.2-0.4 2.5 2.3zm265.7 18.7c0.9 0 3 1.1 4.6 2.5c1.6 1.4 3 2.9 3 3.5c0 0.6 1.2 2.8 2.8 5c1.5 2.2 3.3 4 4 4c0.6 0 1.4 1.2 1.7 2.8c0.3 1.5 2.1 4.5 3.9 6.7c1.9 2.2 3.7 5.4 4.1 7c0.4 1.8 2.4 4.6 5.1 7c2.4 2.2 4.1 4.3 3.7 4.8c-0.3 0.4-2 0.7-3.7 0.7c-1.7 0-5.8-1.6-9.1-3.5c-3.3-1.8-8.1-5.5-10.7-8.2c-2.6-2.6-5.9-7.5-7.4-10.8c-2-4.3-2.9-8.2-3.2-13.8c-0.4-6.6-0.2-7.7 1.2-7.7zm-94.2 9.6c0.6 0.3 1 7.2 0.9 17.5c-0.1 15.8-0.2 17-2.1 17.9c-1.1 0.6-2.9 1-4 1c-1.7 0-2.2-1-3-6c-0.6-3.3-0.8-6.7-0.5-7.5c0.3-0.8 1.2-1.5 2-1.5c0.8 0 1.9-0.9 2.5-2c0.6-1.1 1-4.6 1-7.7c0-3.2 0.5-7.3 1.1-9c0.6-1.8 1.6-3 2.1-2.7zm-86.4 56.4c1.1-0.1 2.7 2 4.7 6.2c2.6 5.6 3 7.3 3 15.8c0 9.2-0.2 9.9-4 17.5c-3.1 6.1-4.5 8.1-6.2 8.3c-2.1 0.2-2.3-0.2-2.3-4.8c0-2.7-0.4-5.2-1-5.5c-0.5-0.3-1.3-2.4-1.6-4.7c-0.4-2.8 0-5.5 0.9-7.8c0.8-1.9 2-6.9 2.5-11c0.6-4.1 1.3-8.4 1.6-9.5c0.2-1.1 0.5-2.6 0.5-3.2c0.1-0.7 0.9-1.3 1.9-1.3z" />
		<path id="Path 11" class="s3" d="m242.3 121c3.6 0 3.7 0.1 3.9 4.3c0.1 2.3 0.3 6 0.4 8.2c0.1 2.2-0.2 5.3-0.6 7c-0.4 1.7-0.4 3.7 0.1 4.5c0.4 0.8 0.5 2.8 0 4.5c-0.7 2.8-0.8 2.6-2.5-3.5c-1.1-3.6-2.2-9.9-2.7-14c-0.4-4.1-1.1-8.3-1.5-9.3c-0.6-1.4-0.2-1.7 2.9-1.7zm173.7 32c0.6 0 1.2 0.4 1.5 1c0.3 0.6 0.9 0.8 1.5 0.5c0.6-0.3 0.9 0.3 0.8 1.3c0 1.1 0.7 2.6 1.8 3.5c1 1 2.3 1.4 2.7 1c0.4-0.5 0.7 0.1 0.7 1.2c0 1.1 0.8 2.8 2 3.8c1.9 1.6 2 1.6 3 0c0.7-1.4 0.9-1.1 0.9 1.7c0 2 0.8 4.2 1.8 5.3c1 0.9 2.2 1.4 2.6 1c0.4-0.5 0.7 0.1 0.7 1.2c0 1.1 0.7 2.8 1.7 3.8c1 0.9 2.2 1.4 2.6 1c0.4-0.5 0.7 0 0.7 1c0 0.9 2 4.1 4.5 7c2.4 2.8 4.5 5.9 4.5 6.7c0.1 0.8-1.4 2.7-3.2 4.1c-1.8 1.5-7.1 4.5-11.8 6.8c-4.7 2.3-9.3 4.1-10.3 4.1c-1.5 0-1.5-0.3-0.4-2.5c0.6-1.4 1.4-2.5 1.7-2.5c0.3 0 2.1-1.4 4.1-3.2c2-1.8 4.9-4.3 6.5-5.6c1.6-1.2 3.2-2.2 3.7-2.2c0.4 0 0.3-0.9-0.3-2c-0.6-1.1-1-3.1-1-4.5q0-2.5-7.1-10.7c-4-4.6-9.4-10.8-12-13.8c-2.7-3-4.9-6.3-4.9-7.2c0-1 0.4-1.8 1-1.8zm-25.4 43c0.5 0 1.9 1.7 3 3.7c1.2 2.1 3.8 5.3 5.8 7.1c2 1.7 4 3.2 4.6 3.2c0.6 0 1 0.7 1 1.5c0 0.8-1.5 2.4-3.2 3.5c-1.8 1.1-4.5 2-6 2c-1.6 0-3.9-0.6-7.6-2.5l2-3.5c1.3-2.3 1.8-4.5 1.5-6.5c-0.3-1.7-0.9-4.2-1.3-5.7c-0.4-1.6-0.3-2.8 0.2-2.8zm-261.9 6c1.8 0 4.2 0.8 5.4 1.8c1.1 0.9 2.5 2.7 3 4c0.5 1.2 1.6 2.2 2.4 2.2c0.9 0 1.5 0.9 1.5 2.5c0 1.4 0.4 2.7 1 3c0.5 0.3 1 1.2 1 2c0 1-1 1.5-3.2 1.5c-1.7 0-2.8-0.3-2.5-0.7c0.4-0.5-0.5-1.6-1.8-2.5c-1.4-1-3.5-3.9-4.7-6.5c-1.2-2.7-2.9-5.3-3.8-6c-1.3-1-1-1.2 1.7-1.3zm-11.6 16c3.5 0.4 9.5 1.9 13.4 3.4c3.8 1.4 9.2 3 11.9 3.4c2.6 0.4 5.1 1.1 5.5 1.6c0.3 0.4-0.1 1.2-0.9 1.7c-0.8 0.5-6 0.7-11.5 0.6c-6.9-0.3-10.8 0-12.5 0.9c-1.9 1-3.5 1.1-6.5 0.3c-2.2-0.6-4.3-0.7-4.7-0.2c-0.3 0.4-0.8 1.7-1 2.7c-0.2 1.5-1 0.7-3-3c-1.5-2.7-2.8-6.1-2.8-7.6c0-2.3 0.4-2.8 2.5-2.8c1.4 0 2.6-0.4 2.8-0.8c0.2-0.4 3.2-0.5 6.8-0.2zm59.3 32.2c1.2 0.2 2 0.9 1.8 1.6c-0.1 0.6 0.4 1.2 1 1.2c0.7 0.1 2.5 2 6.7 8.5l-2.5 10c-2.3 9-2.6 12.2-2.8 31.5c-0.2 11.8-0.7 22.4-1.1 23.5c-0.5 1.1-1.5 2.4-2.2 3c-0.7 0.6-1.5 3.7-1.8 7c-0.3 4.3-0.8 5.9-1.7 5.7c-0.7-0.2-1.6-0.6-1.9-1c-0.4-0.4-1.8-5.4-3.3-11.2c-1.5-6.1-3-15.5-3.4-22.5c-0.5-6.6-0.5-15.8 0-20.5c0.4-4.7 1.5-11.6 2.3-15.5c0.9-3.9 2.7-10.3 4.2-14.3c2.2-6.2 3-7.2 4.7-7zm213.8 25.6c1.1 0.9 2.3 3.3 2.8 5.2c0.6 1.9 1 5 1 6.7c0 2.9-0.3 3.3-2.5 3.3q-2.5 0-4.5-3c-1.1-1.6-3.1-3.2-4.5-3.5c-1.4-0.3-2.5-0.7-2.5-1c0-0.3 1.9-2.5 4.2-4.9c4-4.3 4.2-4.4 6-2.8zm-98.2 29.6c10.7 0 15 0.2 9.5 0.3c-5.5 0.2-14.3 0.2-19.5 0c-5.2-0.1-0.7-0.3 10-0.3zm63.5 9.6l-4.5 4c-2.5 2.3-4.1 4.4-3.7 4.8c0.5 0.4 6.6 1 26.2 1.9l-14.5 0.1c-8.9 0-16.8-0.4-20.5-1.3c-3.3-0.7-5.4-1.4-4.8-1.4c0.7-0.1 1.2-0.7 1.1-1.5c-0.1-0.8 1.4-2.6 3.2-4c3-2.2 4.6-2.6 17.5-2.6zm-29 11.2c2.3 0 3.3 0.2 2.3 0.6c-0.9 0.4-3.1 2-5 3.6c-2.7 2.3-3 3-1.8 3.7c1.2 0.7 1 0.9-0.8 0.9c-1.2 0-4-0.6-6.2-1.3c-2.2-0.6-4-1.5-4-2c0-0.4 0.4-0.7 1-0.7c0.5 0 1.2-0.9 1.5-2c0.4-1.5 1.5-2.1 4.7-2.3c2.4-0.2 6.1-0.4 8.3-0.5zm-216.8 17.8c1.3 0 2.2 0.5 2.1 1.2c-0.1 0.7 1.7 3.3 4 5.8c2.3 2.5 4.1 5.1 4 5.8c-0.2 0.7-2.7 2.6-5.6 4.2c-3.3 1.9-5.2 2.5-5.2 1.7c-0.1-0.6-1.4-2.8-3-4.7c-1.6-1.9-3.6-4.2-4.3-5c-1.2-1.3-0.9-2 2.1-5.3c2.1-2.2 4.5-3.7 5.9-3.7zm152.3 6l37.7 0.1c25.7 0.1 36.4 0.4 33.3 1c-2.5 0.5-4.6 1-4.7 1.2c-0.2 0.1-0.5 4.7-0.8 10.2c-0.3 5.5-1 14.7-1.6 20.5c-0.6 5.8-1.3 11.6-1.5 13c-0.5 2.4-0.6 2.4-1.6 0.5c-0.6-1.1-1.3-11.4-1.7-22.8c-0.5-17.8-0.4-20.9 0.9-21.8c1.1-0.7-0.7-0.9-6.2-0.7c-4.2 0.2-7.9 0.5-8.2 0.8c-0.4 0.3-1 6.4-2.3 26.5l-0.3-26.5l-20.5 0.5l-1.2 9c-0.7 4.9-1.5 9.2-1.9 9.5c-0.3 0.3-1.5 0.6-2.5 0.7c-1.4 0.2-2-0.5-2.4-3c-0.3-1.7-0.5-6.5-0.5-17.7h-10.5l-0.8 20.2c-0.5 11.2-1.2 22.3-1.6 24.8c-0.6 2.9-0.9-4.6-1-20.8zm-126.3 3c0.2 0.6-0.5 1.9-1.4 2.9c-1 1-3.8 4.2-6.3 7.1c-2.4 2.9-5 6.1-5.7 7.2c-0.7 1-2.1 1.9-3 1.9c-1 0-3.8 1.2-6.3 2.6c-2.4 1.5-4.8 3.2-5.1 3.8c-0.4 0.6-0.9 0.4-1.2-0.7q-0.7-1.8 1.1-2.2c0.9-0.3 2.1-1.5 2.6-2.8c0.5-1.2 1-2.5 1.1-2.8c0.1-0.2 0.7-1.6 1.2-3c0.7-1.5 3.8-3.9 8.5-6.4c4-2.1 8.9-4.9 10.8-6.2c1.9-1.3 3.6-1.9 3.7-1.4zm141.8 47.5l0.5 5.1c0.3 2.8 1.2 5.9 2 6.8c0.9 1 3.9 2 7.3 2.4c3.2 0.4 5.7 1.1 5.7 1.5c0 0.4 3 0.8 6.5 0.8c3.7 0 6.5 0.4 6.5 1c0 0.5 0.7 1 1.5 1c1.1 0 1.4 0.8 1.3 2.7c-0.3 2.7-0.2 2.8 5.7 2.8c3.5 0 6.6 0.5 7.3 1.2c0.7 0.7 1.2 1.7 1.2 2.3c0 0.5 1.3 1 2.8 1.1c2 0 1.5 0.3-1.8 1c-2.4 0.6-11.9 1.1-21 1.2c-10.3 0.1-18.9-0.3-23-1.2c-6.2-1.2-6.5-1.4-6.5-4.2c0-1.6 0.5-2.9 1-2.9c0.6 0 1.1-2.4 1.2-5.3c0.1-2.9 0.5-7.9 1-11.3zm-43 39.1l0.8 7.5c0.5 4.1 0.9 10.1 1 13.3c0.2 3.7-0.2 6.2-1.1 7c-0.7 0.6-1 1.9-0.7 2.9c0.3 1-0.2 4.8-1.1 8.5c-0.9 3.7-2.2 7.4-2.9 8.3c-0.8 0.8-1.3 3.3-1.2 5.7c0.2 3 0.7 4.2 1.7 4.2q1.5 0-0.7 1.5c-1.3 0.9-2.9 1.3-3.8 1c-0.8-0.2-1.5-1.5-1.5-2.7c0.1-1.2-0.2-4.5-0.4-7.3c-0.3-2.7-0.6-7.6-0.7-11c-0.1-4 0.8-9.3 2.9-16.5c1.6-5.7 4.1-13.1 5.3-16.5zm-31 15.1c0.6 1.2 1.6 2.7 2.3 3.5c0.7 0.8 2.2 2.7 3.3 4.2c1.1 1.5 2.9 2.7 4 2.7c1.1 0 2.6 1.1 3.4 2.3c0.7 1.2 1.6 3.8 2 5.7c0.5 2.7-0.1 5.4-2.4 11c-2.8 7.1-3 7.3-3 3.8c0-3.2-0.3-3.7-2.3-3.7c-1.4 0-2.8-1.1-4-3c-0.9-1.7-2.4-3.1-3.2-3.1c-0.8 0-1.6-0.7-1.7-1.7c-0.1-1-0.5 1.6-0.9 5.7c-0.5 5.3-0.6 2.5-0.5-9c0.1-9 0.6-17.3 1.1-18.5c0.8-1.9 0.8-1.9 1.9 0.1z" />
		<path id="Path 12" class="s4" d="m252 103c1.4 0 3.3 0.8 4.3 1.8c1 0.9 1.8 2 1.7 2.5c0 0.4-0.7 0.7-1.5 0.7c-0.8 0-1.7 1-1.9 2.3c-0.2 1.2-0.2 11.9-0.1 23.7c0.1 11.8 0.5 22.1 0.9 22.8c0.3 0.6-0.2 2.1-1.1 3.2c-1.2 1.3-2.3 1.7-3.3 1.1c-0.8-0.5-2.3-2.5-3.3-4.5c-0.9-2-1.7-5.5-1.7-7.8c0.1-2.4 0.1-5.2 0-6.3c0-1.1 0.4-2.1 1-2.3c0.5-0.1 1-1 1-2c0-0.9 0.3-2.1 0.7-2.5c0.4-0.5 0.9-3.6 1-7c0.1-3.4 0.6-10 1.1-14.7c0.6-5.9 0.6-8.9-0.2-9.8c-0.8-0.9-0.5-1.2 1.4-1.2zm-32 28.9c0.3 0.3 3.1 3.5 6.1 7.1c3 3.6 6.2 7.1 7.1 7.8c1 0.6 2.5 3.6 3.3 6.5c0.8 2.8 1.5 5.3 1.5 5.5c0 0.1-0.7 0.2-1.5 0.2c-0.8 0-1.5-0.7-1.5-1.5c0-0.8-1-2.7-2.2-4.1c-1.3-1.4-4.5-4.8-7.3-7.5c-2.7-2.7-5.8-5.1-6.7-5.4c-1.3-0.4-1.9-1.7-2-4.4c-0.1-2.6 0.3-4.1 1.2-4.4c0.8-0.2 1.7-0.1 2 0.2zm-122.1 65.6c0.9 0.4 3.8 1.3 6.6 2.1c2.7 0.8 8.6 1.7 13 2c4.4 0.3 8.7 1.1 9.5 1.8c0.9 0.6 2.6 3.2 3.8 5.9c1.2 2.6 3.3 5.5 4.7 6.5c1.3 0.9 2.2 2 1.8 2.5c-0.3 0.4-1.6 0.7-2.7 0.7c-1.2 0-5.7-1.1-10.1-2.6c-4.4-1.4-8.5-3.1-9.1-3.6c-0.6-0.6-1.1-0.7-1.2-0.3c-0.2 0.5-1.1 0-2.2-1c-1.1-1-2-1.4-2.1-0.9c0 0.5-0.5-0.1-1.2-1.2c-0.7-1.2-3.8-4.3-7-6.8c-3.1-2.5-5.6-4.9-5.5-5.2c0-0.3 0.8-0.3 1.7 0.1zm23.9 34.3c6.1 0.3 8 0.8 9.2 2.4c1.4 1.7 2.7 1.9 14.5 1.8c7.2-0.1 15-0.1 17.5-0.1c2.5 0.1 4.8 0.7 5.2 1.3c0.4 0.7 0.8 1.6 0.8 2.1c0 0.4-1.8 1.8-4 3.2c-3.7 2.3-4.2 2.4-6.8 1c-1.5-0.8-4.4-1.5-6.5-1.5c-2 0-3.9-0.3-4.1-0.7c-0.2-0.5-4.1-1.1-8.7-1.5c-4.6-0.3-10.9-0.2-13.9 0.3c-3 0.5-5.7 1.4-5.8 2.1c-0.2 0.8-1.7-0.1-3.8-2.2c-1.9-1.9-3.5-4.2-3.6-5.1c-0.1-0.8 0.3-2 1-2.5c0.7-0.7 4.3-0.9 9-0.6zm323.5 118.2c2.5-0.1 4.3 1 8.2 4.8c2.7 2.7 6.1 6.4 7.5 8.2c1.4 1.8 2.9 4.1 3.5 5.1c0.6 1.1 1.3 1.9 1.7 1.9c0.5 0 2.1 1.5 3.8 3.3c1.6 1.7 3 3.8 3 4.5c0 0.6 0.3 1.2 0.7 1.2c0.5 0 1.9 1.8 3.3 4c1.4 2.2 2.8 4 3.2 4c0.5 0 0.8 0.4 0.8 1c0 0.6-0.9 1-2 1c-1.3 0-8.7-6.7-20-18c-12.2-12.2-17.8-18.5-17.4-19.5c0.3-0.9 1.9-1.5 3.7-1.5zm-111.6 1.1c2.3-0.1 2.3 0.1 2.3 12.9c0 8.3-0.4 12.8-1 12.5c-0.6-0.3-1.5 1-2 2.8c-0.6 1.7-1 5.8-1 9c0 3.1-0.4 6.6-1 7.7c-0.6 1.1-1.7 2-2.5 2c-0.8 0-1.5 0.4-1.5 1c0 0.6-0.5 0.7-1.2 0.3c-0.8-0.6-0.9-3.2-0.4-9.3c0.4-4.7 1.1-14.6 1.6-22c0.5-7.4 0.8-14 0.7-14.7c-0.1-0.6 0.7-1.4 1.8-1.6c1.1-0.3 3-0.5 4.2-0.6zm-40.7 0.9v29c0 27.1-0.1 29-1.8 28.7c-1.2-0.1-2-1.7-2.7-5c-0.7-3.1-1.6-4.9-2.8-5.2c-1-0.3-2-1.9-2.4-3.7c-0.4-2.1-1.4-3.5-2.6-3.8c-1.8-0.4-1.9-1-1.3-5.5c0.4-2.7 1.1-7.5 1.6-10.5c0.5-3 1.4-9.1 2-13.5c0.6-4.4 1.3-8.6 1.5-9.2c0.3-0.8 2.1-1.3 8.5-1.3zm-204.5 11c0.5 0 2.1 1 3.5 2.2c1.4 1.3 2.4 3 2.3 3.8c-0.2 0.8-2.2 2.1-4.5 2.7c-2.4 0.7-7.3 2-11.1 2.8c-3.7 0.8-7.7 1.5-9 1.5c-1.5 0-0.1-1.3 4.8-4.1c3.8-2.3 8.3-5.2 10-6.5c1.6-1.3 3.4-2.4 4-2.4zm50.1 1c0.8 0 1.4 0.3 1.4 0.8c0 0.4-1.3 2.3-2.9 4.2c-1.7 1.9-3 4.1-3.1 4.8c0 0.6-0.4 1.2-1 1.2c-0.6 0-0.8 0.7-0.5 1.5c0.3 0.9-0.5 2-2 2.8c-1.4 0.6-2.5 1.5-2.5 2c0 0.4 1 0.9 4.5 1.8l-2.5 1c-1.4 0.6-5 0.9-8 0.7c-4.7-0.3-5.5-0.6-5.5-2.3c0-1 1.8-3.5 4-5.5c2.2-2 6.2-5 9-6.7c2.7-1.7 5.6-3.8 6.4-4.7c0.7-0.9 1.9-1.6 2.7-1.6zm308.3 20.5c1.3 1.1 2.4 1.9 2.5 1.7c0-0.2 1.3 0.1 2.8 0.7c1.6 0.6 4.1 3 5.8 5.4c1.6 2.3 5.3 6.2 8.1 8.7c2.9 2.5 6.1 5.9 7.1 7.5c1 1.6 1.8 3.3 1.8 3.8c0 0.4-2.8 0.7-6.3 0.6c-3.4-0.1-7.3-0.5-8.7-0.9c-2.2-0.7-2.2-0.8-0.4-0.9c1.1-0.1 2.4-0.4 2.7-0.8c0.4-0.5-1.3-2.6-3.7-4.8c-2.7-2.4-4.7-5.2-5.1-7c-0.4-1.6-2.2-4.8-4.1-7c-1.9-2.2-3.4-4.3-3.4-4.7c0-0.5-0.3-1.6-0.7-2.5c-0.5-1.6-0.3-1.5 1.6 0.2zm-70.3 4.5c0.1 0 0.1 1.2 0 2.7c-0.1 1.8 0.6 3 1.9 3.7c1.1 0.6 1.9 1.9 1.8 2.9c-0.2 1.1 0.8 2.1 5.8 4.2l-7.8 5.6c-4.3 3.1-11.2 7.4-15.3 9.4c-4.1 2.1-10.3 4.8-13.8 6.1c-3.4 1.3-8.1 2.4-14.7 2.5l2-2.1c1.2-1.2 1.5-2.1 0.7-2c-0.6 0-1.2-1.1-1.2-2.5c0-1.4-0.5-2.5-1-2.5c-0.6 0-0.8-0.9-0.5-2c0.3-1.1 0-2-0.7-2c-0.6 0-0.9-0.2-0.7-0.5c0.2-0.3 1.5-0.7 2.9-1c1.4-0.2 5.8-2 9.7-4c4-1.9 7.6-3.5 8-3.5c0.5 0 3-1.5 5.8-3.3c2.7-1.7 5.7-3.6 6.6-4.2c0.9-0.6 3.6-2.5 5.9-4.2c2.4-1.8 4.4-3.3 4.6-3.3zm-132.6 53c0.5 0 0.6 3 0.3 6.8c-0.3 3.7-1.2 8.1-2 9.7q-1.5 3-0.9 7.3c0.3 2.3 1 4.4 1.6 4.7c0.5 0.3 1 2.8 1 5.5c0 4.5 0.2 5 2.2 5c2.2-0.1 2.1 0.1-1.2 3.9c-1.9 2.1-4.3 4-5.3 4c-1.4 0.1-1.6-0.5-1.2-3.4c0.4-2.5 0.1-3.6-1-4c-1.3-0.4-1.4-2.6-1.1-13.2c0.3-10.2 0.8-13.9 2.6-18.3c1.2-3 2.6-6.1 3.2-6.7c0.6-0.7 1.4-1.3 1.8-1.3zm-39.6 48.9c0.6 1 1.7 1.6 2.3 1.5c0.7-0.2 1.6 0.6 1.9 1.9c0.3 1.2 0.4 3.3 0.1 4.7c-0.4 1.4-1.4 3.4-2.4 4.5c-1 1.1-3.8 4.9-6.2 8.5c-2.4 3.6-5.1 7.5-6 8.7c-0.9 1.2-1.9 2.3-2.4 2.3c-0.4 0 0.6-3.5 2.2-7.7c1.5-4.3 3.7-11.4 4.7-15.8c1-4.4 2.5-8.5 3.3-9.2c1.1-0.9 1.7-0.8 2.5 0.6z" />
		<path id="Path 13" class="s8" d="m448 131c0.3-0.1 1.7 1.5 6 7l-8.3 7c-4.5 3.8-8.8 7-9.4 7c-0.7 0-2.2-1-3.3-2.3c-1-1.2-2-2.7-2.2-3.4c-0.1-0.6 3.6-4.3 8.2-8.2c4.7-3.9 8.7-7.1 9-7.1zm-30.6 7.2c1.3 0.2 2 0.9 1.9 2c-0.2 1 0.9 3.5 2.3 5.5c2.5 3.5 2.6 4-0.1 9.3l-4.7-5.8c-2.6-3.1-4.8-6.1-4.9-6.6c-0.2-0.5 0.6-1.8 1.6-2.8c1-1 2.8-1.8 3.9-1.6zm-4.1 13c1.6 0.2 2.1 0.9 2 2.5c-0.2 1.3 0.8 3.8 2.1 5.5c1.3 1.8 2.6 5.4 3 8c0.4 3 0.2 4.8-0.4 4.8c-0.6 0-2.6 1.5-4.6 3.2c-3.2 2.9-4.2 3.3-9.4 3.3c-4.7 0-6.3 0.4-8.2 2.2c-1.2 1.3-2.6 2.3-3 2.3c-0.5 0-0.8-0.7-0.8-1.5c0-0.8 1.2-4.5 2.7-8.3c1.5-3.7 5.4-10.2 8.6-14.5c4.6-6.1 6.3-7.8 8-7.5zm18.2 5.6l2.7 3.4c1.7 2 2.8 4.5 2.8 6.5c0 2.2-0.4 3.2-1.2 3c-0.7-0.2-2.6-1.9-4.1-3.8c-2.5-3.1-2.7-3.6-1.5-6.2zm-161.6 77.1c6.6 0 12.8 0.3 13.6 0.5c0.8 0.3 1.5 1 1.5 1.5c0 0.6-4.7 1-12 1c-9.3 0-12.4-0.3-13.6-1.5c-1.5-1.3-0.4-1.5 10.5-1.5zm39.5 0.4c7 0.1 10 0.5 10.3 1.4c0.2 0.9-2.6 1.2-11.7 1.2c-6.6 0-12.1-0.4-12.2-0.9c-0.2-0.5 0.6-1.1 1.7-1.4c1.1-0.3 6.5-0.4 11.9-0.3zm-64.2 2.2c0.6 0.3 1 1.2 0.9 2c-0.1 0.8 0.5 1.2 1.4 0.9c1-0.3 1.5 0.2 1.5 1.8c0 1.2 1 3.8 2.3 5.7c1.2 2 4.3 4.6 6.7 6c3.8 2.1 6 2.5 14.5 2.7c5.5 0.1 13 0.3 16.8 0.3c4.1 0 6.5 0.4 6.2 1c-0.3 0.6-0.5 4.1-0.7 14.5l-15.1-0.3c-8.4-0.1-16.2 0-17.4 0.3c-1.3 0.3-4.4 2.7-7 5.3c-3.3 3.3-6.5 5.4-10.3 6.6c-4.6 1.5-6.2 1.7-9.7 0.7c-2.4-0.6-6.1-1.1-8.3-1.1c-3.7 0-4-0.2-4.5-3c-0.3-1.6-1.1-3-1.7-3c-0.7 0-2.5-0.5-4-1.2c-1.5-0.7-2.9-1.9-3.1-2.8q-0.5-1.5 4.5-4c2.7-1.3 6.7-4.4 8.9-6.7c2.1-2.4 3.9-5.1 4-6c0-1 0.8-2.9 1.7-4.3c0.9-1.4 2.2-2.8 2.9-3.2c0.7-0.4 2.3-2.7 3.4-5c1.2-2.4 2.8-5 3.6-6c0.8-0.9 2-1.5 2.5-1.2zm88.6 19.7c0.6 0.4 1 1.2 0.7 1.7c-0.3 0.6-0.7 2.9-1 5.3c-0.3 2.3-0.5 5-0.5 6c0 1.6-1.3 1.7-13.5 1.7c-8.7 0-13.3-0.3-13-1c0.3-0.5 0-1.1-0.6-1.2c-0.6-0.2-0.2-2.1 1-5c1.2-2.6 2.1-5.2 2.1-5.8c0-0.5-0.8-1.1-1.7-1.2c-1-0.1 4.3-0.4 11.7-0.7c7.4-0.3 14.1-0.2 14.8 0.2zm-127.8 38.7h2.5c1.8 0 2.5 0.6 2.5 2c0 1.1 0.5 2.9 1 4c0.9 1.8 2 2 11.5 2c8.7 0 10.5 0.3 10.5 1.5c0 0.9 0.6 2.8 1.4 4.3c0.7 1.5 2.6 3.3 4.2 3.9c1.6 0.7 3.8 1.4 4.9 1.7q2 0.4-1 0.5c-2.2 0.1-4.2 1.4-7.2 4.6c-3.6 3.8-4 4.5-2.3 4.5c1.1 0 2 0.5 2 1c0 0.6-1.9 1-4.2 1.1c-2.9 0-4.9-0.6-6-1.8c-1-1.1-3.4-1.9-6.2-2c-3.4-0.2-5 0.2-6.3 1.6c-1 1.1-3 2.2-7.3 3.1v-16z" />
		<path id="Path 14" class="s5" d="m224.2 105c0.7 0 2 1.2 2.8 2.6c0.8 1.5 3 3.3 4.8 4.1c2.6 1 3.2 1.9 3.2 4.3c0 1.7 0.2 3.7 0.5 4.5c0.3 0.8 0.1 1.5-0.5 1.5c-0.5 0-3.8-2.8-7.3-6.3c-5.4-5.2-6.2-6.5-5.5-8.4c0.4-1.3 1.3-2.3 2-2.3zm23.6 70.9c0.1 0.6 1.1 1.1 2.2 1.1c1.1 0 2 0.4 2 1c0 0.6-0.6 1.2-1.2 1.4c-1 0.3-0.9 0.7 0.2 1.5c1.3 1 1.3 1.2 0 2.1c-1 0.7-1.2 1.2-0.4 1.7c0.6 0.5 1.3 1.5 1.6 2.3c0.3 1.1-2.4 3-9.6 6.8c-5.6 2.9-10.7 5.2-11.3 5.2c-0.9 0-1.1-1.1-0.8-3.5q0.5-3.5-1-5c-0.8-0.8-1.9-1.5-2.5-1.5c-0.6 0-0.9-0.8-0.7-1.8c0.2-1 4.2-3.7 10.7-7c5.8-2.9 10.6-4.9 10.8-4.3zm-103.4 23.8l7.6 0.6c5.2 0.5 8.7 1.4 11.5 3c2.7 1.7 4.7 4 6.4 7.3c1.3 2.7 2.6 6.2 2.9 7.9c0.3 2 0 3.3-0.9 3.9c-0.8 0.5-4 0.3-7.9-0.4c-3.7-0.7-7.3-2.1-8.2-3.1c-1-1.1-1.8-2.1-1.8-2.4c0-0.3-1.3-2.4-2.9-4.8c-1.6-2.3-3.7-6-4.8-8.1zm-8.1 123.4l2.3 3.2c1.3 1.8 3.4 4.5 4.6 6.1c1.3 1.6 2.4 3.3 2.6 3.7c0.1 0.5-0.3 0.9-1 0.9c-0.7 0.1-3.5 2.3-6.3 5c-5 4.9-5 4.9-5.7 2.5c-0.4-1.4-1.5-2.5-2.3-2.5c-0.8 0-1.8-0.8-2.2-1.8c-0.4-0.9-2.1-3-3.8-4.5c-1.6-1.5-3.5-2.8-4.2-2.7c-0.7 0 0.2-1.2 1.9-2.8c1.8-1.5 5.7-3.7 8.7-4.9zm128.7 27.9h10.8l-0.4 7.7c-0.2 4.3-0.8 16.1-1.4 26.3c-0.6 10.2-1.2 20-1.3 21.8c-0.2 3.1-0.4 3.2-7.2 2.7l-0.3-29.3zm47.6 0.3c1.7 0.2 2 1.1 2.3 7.2c0.2 3.9-0.2 15.8-0.7 26.5c-0.6 10.8-1.5 20.9-2.1 22.5c-0.7 1.9-1.4 2.6-1.9 2c-0.5-0.5-1.3-13.6-1.7-29.1c-0.8-24.5-0.7-28.3 0.6-28.7c0.8-0.3 2.4-0.5 3.5-0.4zm173.7 17.6c1.2 0.4 3.8 3 5.6 5.7c1.8 2.7 4.6 7.2 6.2 9.9c1.6 2.8 6.7 8.7 11.2 13.1c4.6 4.4 10.5 9.4 18.3 13.8l-3 0.8c-1.7 0.4-6.5 1.1-10.9 1.6c-6.7 0.6-7.7 0.5-7.1-0.8c0.3-0.8-0.1-2.3-1-3.2c-0.8-1-2-1.8-2.5-1.8c-0.6 0-1-0.9-1-2c0-1.1-0.5-2.2-1-2.5c-0.6-0.2-0.8-1.4-0.5-2.5c0.3-1.3-0.3-2.6-1.8-3.8c-1.2-1-4.1-4.6-6.5-8c-2.3-3.4-4.2-6.5-4.2-6.9c0-0.4-0.9-1.7-2-2.8c-1.5-1.4-2.1-3.2-2.1-6.7c0-4.5 0.1-4.7 2.3-3.9zm-391.2 2.3c2.1 0 3.9 0.5 3.9 0.9c0 0.5-0.5 1.1-1.2 1.4c-0.7 0.3-2.6 2.5-4.2 5c-1.7 2.5-3.7 4.6-4.5 4.5c-0.9 0-4.9-1-9-2.4c-4.2-1.3-9.1-2.8-14.5-4.4l3-0.1c1.6 0 7.2-1 12.5-2.1c5.2-1.2 9.6-2.3 9.8-2.5c0.2-0.2 2.1-0.3 4.2-0.3zm120 10.9c0.2 0 2.5 1.9 5.1 4.2c2.5 2.3 6.4 5.6 8.5 7.2c2.1 1.7 5.1 3.7 6.7 4.5c1.7 1 2.7 2.3 2.7 3.8c0 1.4-0.8 2.4-2 2.7c-1.1 0.3-2 1-2 1.5c0 0.6 0.6 1.3 1.5 1.5c0.8 0.3 1.5 1.1 1.5 1.8c0 0.7-1 2-2.2 2.8c-2.2 1.6-2.6 1.5-7.8-1.8c-3.1-1.9-8.6-5.9-12.3-8.9c-3.7-3-6.7-6-6.7-6.9c0-0.8 0.6-1.5 1.5-1.5c0.8 0 1.7-1 2-2.2c0.2-1.3 0.5-3.1 0.5-4c0-1 0.5-2.4 1.2-3.2c0.7-0.8 1.5-1.5 1.8-1.5zm10 43.1c2.2 0.3 2.5 0.8 2.3 4.3c0 2.2-0.8 5.4-1.6 7c-0.9 1.7-2.1 8.4-2.7 15c-0.6 6.6-1.3 12.3-1.6 12.5c-0.3 0.3-0.5-0.3-0.5-1.2c0.1-1-1.5-3-3.4-4.5c-2-1.5-3.5-3.3-3.5-4c0-0.7-0.9-3-1.9-5c-1.1-2.1-2.9-4.8-4-6c-1.2-1.3-2.1-2.8-2.1-3.5c0-0.7 0.6-2.3 1.5-3.5c0.8-1.3 4.5-4.3 8.2-6.8c4.4-3 7.6-4.4 9.3-4.3z" />
		<path id="Path 15" class="s9" d="m239.8 91c0.9 0 3.9 2 6.7 4.4c3.4 3.1 4.5 4.5 3.2 4.6c-1.2 0-1.9 1.1-2.3 3.8c-0.3 2-1 5-1.5 6.7c-0.4 1.7-1 4.7-1.1 6.8c-0.3 3.2-0.6 3.7-2.8 3.7c-2.2 0-2.7-0.7-4.3-6c-0.9-3.3-1.7-9.2-1.7-13c0-4.3 0.4-6.8 1-6.5c0.5 0.3 1-0.6 1-2c0-1.7 0.6-2.5 1.7-2.5zm231.1 66c0.4 0 1.7 1.3 2.9 3c1.3 1.6 2.2 3.4 2 3.9c-0.1 0.5-4 4.1-8.7 8c-4.7 3.9-8.7 7.1-9 7.1c-0.3 0-1.5-1.3-2.8-3c-1.2-1.6-2.2-3.2-2.2-3.4c0-0.3 3.8-3.9 8.5-8c4.7-4.2 8.9-7.6 9.3-7.6zm-37.9 20c4.3 4.7 5 6.1 5.1 9.8c0 4.1-0.1 4.2-4.3 5.3c-2.3 0.5-5.1 1.3-6.2 1.6c-1.1 0.2-3.1 0.2-4.5-0.2c-2.2-0.6-2.3-0.8-0.7-1.4c1.7-0.6 1.7-0.8-0.5-3.4c-1.4-1.8-1.9-3.1-1.3-3.6c0.6-0.5 2.8-1.4 5-2.2c3.5-1.1 3.7-1.3 1.7-1.8c-2.1-0.6-2.2-0.8-0.8-2.6c0.9-1.1 1.5-3.1 1.5-4.5c0.1-2.3 0.5-2 5 3zm-29.9 14c0.6 0 1 0.8 1 1.7c0 1.5 1.5 2 7.7 3c4.3 0.7 8 1.5 8.3 1.8c0.3 0.3-0.2 1.3-1.1 2.2c-0.9 1-2.3 3.5-3 5.6c-1.2 3.2-1.8 3.7-4.4 3.7c-1.6 0-4.5-0.9-6.3-2c-1.7-1.1-3.2-2.3-3.2-2.8c-0.1-0.4 0.8-1.9 2-3.5c2-2.7 2-2.7 0-3.7c-1.2-0.6-2-2-2-3.5c0-1.4 0.4-2.5 1-2.5zm-13.7 4.5l1.3 4c0.8 2.2 1.4 4.9 1.4 6c0 1.1-0.6 3.5-1.5 5.3c-0.8 1.7-1.9 3.2-2.5 3.2c-0.6 0-1.9-1.9-3-4.3c-1.1-2.3-2-4.8-2-5.5c0-0.6 1.1-1.4 2.5-1.7c1.9-0.4 2.7-1.3 3.1-3.8zm-20.6 67.5c0.7 0 1.7 0.8 2.1 1.7c0.4 0.9 2.3 2.5 4.3 3.6c1.9 1.2 3.7 2.2 4 2.4c0.2 0.1-0.8 1.7-2.4 3.6c-1.6 1.8-3.9 3.8-5.3 4.5c-1.3 0.7-2.2 1.8-1.9 2.5c0.2 0.8-1.7 1.9-5.3 3c-4.3 1.3-6.4 1.5-9.1 0.7c-2-0.6-5-1.9-6.8-3c-1.8-1.1-3.2-2.5-3.3-3.2c0-0.7 0.6-1.8 1.2-2.5c0.7-0.7 2.3-1.3 3.6-1.3c1.2 0 3.6-0.6 5.3-1.5c1.6-0.8 5-3.5 7.6-6c2.5-2.4 5.2-4.5 6-4.5zm-67.6 52.2c3-0.1 6.9 0.2 12 1.3l-7 7l3.2 1c2.7 0.8 0.9 1.1-21.7 2l-3.3 3.5c-2.4 2.5-2.9 3.7-2 4.2c0.7 0.3-3.9 0.9-10.2 1.3c-6.4 0.4-12.9 1-14.5 1.3c-2.7 0.5-2.8 0.7-1 1.3c1.5 0.6 1.1 0.8-1.8 0.9c-3.3 0-3.8 0.4-4.8 3.3c-0.5 1.8-1 4.3-0.9 7.7l-14.3-0.6c-7.8-0.4-15.4-1-19.2-2.1l2.5-1c1.3-0.6 4.7-3.3 7.5-6.1c4.8-4.8 5.1-5 9.5-4.4c2.4 0.3 4.7 1 5.1 1.6c0.4 0.7 3.1-1.4 12.8-11.4h11c6.7 0 11.1-0.3 11.1-1c0-0.5-1.2-1.1-5.3-1.5l3.1-3.3c2.9-3.2 3.4-3.4 12.9-4.1c5.4-0.4 12.2-0.8 15.3-0.9zm14.5 19.3c2.7 0.3 9 0.8 23 1.9l-8 1.1c-4.4 0.7-8.6 1.5-9.3 1.9c-0.7 0.3-1 1.1-0.7 1.6c0.2 0.6 3.3 1 6.7 1c3.5 0 6.6 0.2 7 0.5c0.4 0.3-0.7 1.8-5.5 6.2l-22.6 0.6c-12.5 0.2-18.5 0.2-13.6-0.1c7.7-0.6 9.7-1 12.5-3.3c1.9-1.4 4.6-3.8 5.9-5.2c1.3-1.5 3-2.7 3.7-2.7c0.8 0 1.6-0.4 1.9-1c0.2-0.5-1-1.4-2.8-1.9c-2.9-0.9-2.7-1 1.8-0.6z" />
		<path id="Path 16" class="s10" d="m405.3 178.4c2.9-0.1 4.6 0 3.9 0.2c-0.6 0.2-1.2 0.8-1.2 1.4c0 0.6 0.7 1 1.5 1c1.2 0 1.3 0.3 0.2 2c-1 1.6-0.8 2.3 1.3 4.4c2.4 2.4 2.4 2.5 0.5 3c-1.1 0.4-3.7 0.7-5.8 0.9c-3.1 0.2-3.7 0.6-3.7 2.4c0 1.3 0.9 2.7 2 3.3c2 1 2 1-0.3 4c-2.1 2.8-2.3 2.9-4.1 1.2c-1-0.9-2.6-3.3-3.6-5.2c-0.9-1.9-2-5.4-2.4-7.8c-0.6-3.9-0.3-4.4 2.9-7.5c3-2.7 4.4-3.2 8.8-3.3zm-13.9 16.4c0.7 0.4 0.6 0.8-0.4 0.9c-0.8 0.2-1.8 1.5-2.1 3.1c-0.4 1.5-1.5 3-2.5 3.5c-1.1 0.4-2 0.6-2.2 0.5c-0.2-0.2-0.1-1.5 0.2-3.1c0.4-1.5 1.7-3.3 3.3-4.1c1.4-0.8 3.1-1.1 3.7-0.8zm-138.7 39.3c2.4 0 5 0.1 5.8 0.4c0.8 0.3 1.5 0.9 1.5 1.5c0 0.6-2.7 1-6 1c-4.7 0-6 0.3-6 1.5c0 0.8-0.5 1.5-1 1.5c-0.6 0-1-0.4-1-1c0-0.6-0.2-1.7-0.5-2.5c-0.3-0.9 0.2-1.7 1.2-1.9c1-0.2 3.7-0.4 6-0.5zm38.4 0c4.6 0.1 7.6 0.3 6.6 0.5c-0.9 0.2-1.7 0.8-1.7 1.4c0 0.6-2.3 1-5 1c-3 0-5.6-0.6-6.6-1.5c-1.5-1.3-0.8-1.5 6.7-1.4zm42.7-0.1c12.4 0 15.2 0.3 17.7 1.8c1.9 1.1 4.3 4.3 6.5 8.8c1.9 3.8 5.1 9.4 10.9 17.9l-4.5 3.2c-2.4 1.8-4.4 3.7-4.4 4.3c0 0.6-1.8 1.9-4 3c-2.2 1.1-5.1 2-6.5 2c-1.4 0-3.1 0.9-3.8 1.9c-1.1 1.9-1.4 1.8-5.5-2c-2.3-2.1-4.9-3.9-5.7-3.9c-0.8 0-1.6-0.6-1.6-1.3c-0.1-0.6 0-1.6 0.1-2.2c0.2-0.6 0.5-2.8 0.7-5c0.1-2.2 0.5-4.2 0.8-4.5c0.3-0.3 0-0.9-0.5-1.5q-1-1 2.3-2.5c1.7-0.8 4.4-2.5 5.9-3.7c1.6-1.3 2.8-3 2.8-3.8c0-0.8 0.4-1.6 0.9-1.8c0.5-0.1 1.2-1.9 2.1-7.7h-14c-11.6 0-14.1-0.3-14.5-1.5c-0.3-1.3 1.7-1.5 14.3-1.5zm-31.7 22.1c3.1 0.2 6.1 0.7 6.6 1.2c0.4 0.4-0.2 3.1-1.5 6c-1.7 4-1.9 5.3-1 5.8c1 0.5 0.9 0.8-0.2 1.5c-0.8 0.4-3.5 0.7-6 0.5c-2.5-0.1-4.7-0.4-5-0.7c-0.3-0.3-0.4-3.3-0.3-6.6c0.1-3.3 0.5-6.5 0.9-7c0.4-0.6 3.3-0.9 6.5-0.7zm-88.9 15.9c0.4 0 0.8 0.6 0.8 1.2c0 0.7 1.2 1.9 2.8 2.6c1.5 0.7 3.3 1.2 3.9 1.2c0.7 0 1.3 0.3 1.3 0.7c0 0.5 0.3 1.7 0.6 2.8c0.4 1.6-0.2 2.2-3.5 3.2c-2.4 0.8-4.7 2.3-5.6 3.8c-1.1 1.8-2.4 2.5-4.5 2.5c-2.6 0-3-0.4-3-2.8c0-1.5 0.5-4.5 1.1-6.7c0.6-2.2 2-5 3.2-6.3c1.1-1.2 2.4-2.2 2.9-2.2zm57.5 42.7c0.7 0.2 6.6 0.4 24.8 0.6l-10 0.8c-9.7 0.7-10.1 0.9-15.7 7.4l2.6 0.2c1.4 0.2 2.6 0.7 2.6 1.3c0 0.6-4.4 1-22.2 1l-6 6.2c-3.6 3.7-6.3 5.8-6.7 5.2c-0.3-0.6-2.6-1.4-5.1-1.7c-4.4-0.5-4.7-0.3-9.7 4.6c-2.9 2.9-6.6 5.5-8.3 5.9c-2.6 0.7-3.3 0.4-5.4-2.5c-1.3-1.7-2.7-4.6-3.1-6.2c-0.3-1.6-1.2-3.3-1.8-3.7c-0.9-0.5-0.9-1.6-0.2-4c0.7-2.3 1.7-3.4 3.3-3.6c1.2-0.1 2.8-1.1 3.4-2.2c1.1-1.6 2.2-2 6.1-1.8c3.1 0.2 5.5 0.9 6.5 2.1c1.1 1.2 3.1 1.8 5.9 1.7c2.4 0 4.3-0.4 4.3-1c0-0.6-0.9-1-2-1c-1.7 0-1.3-0.8 6.8-8.9l14.3-0.3c7.9-0.2 15-0.2 15.6-0.1z" />
		<path id="Path 17" class="s11" d="m419.8 140c0.4-0.1 9.9 10.9 21.1 24.2c11.3 13.4 20.7 25.1 21 26c0.4 1-0.2 2.6-1.4 3.8c-1.1 1.1-2.5 2.1-3 2c-0.6 0-3.8-3.4-7.3-7.5c-5.9-7.2-6.1-7.6-5-10.4c1.3-2.8 1-3.2-6.4-12.2c-4.2-5.2-10.4-12.6-13.7-16.4c-3.4-3.8-6.2-7.6-6.1-8.3c0-0.6 0.3-1.2 0.7-1.2zm-28.1 155c2.3 0 2.4 0.2 2.4 14l-4.3 1.9c-2.3 1-6.5 4.1-9.3 6.7c-2.8 2.7-5.2 5.5-5.5 6.3c-0.3 1-2.8 1.3-10.9 1.2c-5.8-0.1-12.1-0.6-17.5-1.7l4.5-4.5c2.5-2.5 5.7-4.8 7.2-5.2c1.6-0.4 3.7-1.6 4.8-2.7c1.1-1.1 2.3-3.3 3.5-8l22-0.5l0.3-3.8c0.3-3.2 0.7-3.7 2.8-3.7zm-62.1 1h7.7c7.5 0 7.8 0.1 6.8 2c-0.6 1.1-2.5 2.7-4.3 3.6c-3.2 1.6-3.2 1.6-6.7-2zm20.5 30.2c10.7 0.1 17.2 0.3 14.5 0.5c-3.8 0.3-5.6 1-7.7 3.1c-1.5 1.5-4.1 4.2-8.8 9.2l-9.3-0.9c-6.6-0.6-7.9-0.9-4.7-1.1c4-0.2 3.7-0.4-2.8-1.1c-3.9-0.5-8-1.3-9-1.8c-1.5-0.7-1.3-1.2 1.6-3.7c1.9-1.6 4.1-3.2 5-3.6c1-0.4 10.5-0.6 21.2-0.6z" />
		<path id="Path 18" class="s12" d="m267.1 241h5.9c6 0 6 0 6.5 3.3c0.3 1.7 0.6 5 1 11.2h-15l0.1-3.5c0-1.9 0.4-5.2 0.8-7.2zm63.4-0.1l1.5 7c1.2 5.5 1.2 7.1 0.3 7.5c-0.7 0.3-4.4 0.6-15.3 0.6v-5.5c0-3.1 0.5-6.5 1.2-7.5c1-1.7 2.3-2.1 12.3-2.1zm-101.2 5.1c3.9 0 5.7 0.3 5.7 1.2c0 0.7-0.7 2.4-1.7 3.8c-0.9 1.3-2 3.8-2.3 5.5c-0.5 2.7-0.9 2.9-5 2.9c-2.5 0-5.7-0.8-7.2-1.7c-2.2-1.4-2.8-2.4-2.6-5.1c0.1-2.2 0.8-3.7 2.2-4.4c1.2-0.6 2.8-1.3 3.6-1.6c0.8-0.3 4.1-0.5 7.3-0.6zm142.2 0c4.9 0 8.4 0.5 10 1.5c1.9 1.1 2.5 2.3 2.5 5c0 3.1-0.4 3.7-4.2 5.4c-2.4 1.1-5.5 2-7 2c-2.3 0-3.4-0.9-5.8-4.7c-1.6-2.6-3-5.8-3-7c0-2.1 0.4-2.2 7.5-2.2zm-93.2 25c8.6 0 15.7 0.2 15.7 0.5c0 0.2-1 1.3-2.2 2.4c-1.9 1.5-2.3 2.9-2.3 7.2c0 2.9 0.2 6 0.5 6.9c0.4 1.2-2.3 1.5-19.2 2c-19.6 0.4-19.7 0.4-31.3-4.9l5.5-1.8c3.7-1.2 6.8-3.1 9.5-5.9c2.2-2.2 4.9-4.6 6-5.2c1.3-0.8 7.6-1.2 17.8-1.2zm48.9 0c4.5 0 9 0.4 9.8 0.9c0.9 0.5 1.2 1.5 0.8 2.5c-0.5 0.8-2.3 1.8-4 2.2c-1.8 0.3-3.7 1-4.3 1.5c-0.5 0.5-3.6 0.7-6.7 0.4c-3.2-0.3-5.8-1-5.8-1.5c0-0.6 0.7-1.7 1.5-2.5c0.8-0.9 1.2-2 0.9-2.5c-0.4-0.7 2.4-1 7.8-1zm-76.2 32l-1.1 2.7c-0.6 1.5-1.5 3.5-2 4.5c-0.5 1-1.9 2.2-3.1 2.8c-1.7 0.9-3 0.8-5.2-0.2c-1.6-0.7-3.5-2.6-4.2-4.1c-0.8-1.5-1.4-3.4-1.4-4.2c0-1.3 1.6-1.5 17-1.5zm-43.9 31c0.7 0 1.4 1.4 1.7 3.2c0.2 1.8 1.5 4.7 2.8 6.5c1.8 2.4 2.9 3.1 4.2 2.5c1.2-0.5 1.5-0.4 1 0.5c-0.6 0.9 0.6 1.4 4 1.9c2.6 0.3 5.3 1 6 1.5c0.9 0.7 0.8 1.4-0.5 3.6c-1 1.5-2.7 3.7-3.8 4.9c-1.5 1.7-3.1 2.3-6.2 2.3c-3.5 0-4.7-0.4-6.4-2.7c-1.1-1.5-2.4-4.3-2.9-6.2c-0.5-2-1.2-6-1.6-9c-0.4-3.1-0.4-6.3-0.1-7.3c0.4-1 1.2-1.7 1.8-1.7z" />
		<path id="Path 19" class="s13" d="m424.4 148.5l3.3 4c1.8 2.2 3.3 4.4 3.3 5c0 0.6-0.6 2.1-2.5 5.7l-3.2-4.1c-3.1-3.8-3.2-4.3-2.1-7.4zm-4.7 13.1l4.4 4.9c2.8 3.2 4.3 5.8 4.1 7.3c-0.1 1.2-0.9 3.4-1.7 4.8c-1.3 2.1-2.3 2.5-6.7 2.6c-4.5 0.1-4.8 0.2 0.7 1.6l-3.2 0.1c-1.8 0.1-4 0.4-4.8 0.7c-0.9 0.2-1.5-0.2-1.5-1.1c0-0.8-0.7-1.4-1.5-1.4c-0.8 0-1.5-0.5-1.5-1.1c0-0.5 0.8-1 1.8-1c0.9 0 3.4-1.5 5.5-3.5c2-1.9 4.2-3.4 4.7-3.4c0.6 0 0.8-2 0.4-5.3zm17.7 2.3l4.2 5.4c2.4 2.9 4.3 6 4.4 6.8c0 0.8-0.6 2.3-1.3 3.3c-1.1 1.5-1.6 1.2-5.5-3.5c-2.3-2.9-3.8-5.4-3.2-5.5c0.5-0.2 1.1-1.7 1.2-3.4zm-94.3 137.8c0.7 1.1 3.4 1.4 11.9 1.4c9.1 0 11 0.3 11 1.5c0 0.8-0.7 2.7-1.4 4.2c-0.8 1.6-2.7 3.5-4.3 4.2c-1.9 1-7.4 1.6-31.8 2.3l3.2-3.6c2.2-2.4 3.3-4.7 3.3-6.6c0-1.7 0.4-2.8 1-2.5c0.5 0.3 2.2-0.1 3.6-0.9c2.3-1.2 2.8-1.2 3.5 0zm-44.6 32.7c9.4 0.1 15.7 0.6 19 2.6l-2 0.7c-1.1 0.4-3.4 2.1-5 3.7c-1.7 1.6-4.6 4-6.5 5.3c-3.4 2.3-4.4 2.4-27 2.8c-13 0.3-22.3 0.3-20.8 0c1.5-0.2 2.8-1 2.8-1.7c0-0.6 0.8-2.2 1.8-3.5c1.6-2 2.6-2.2 10.4-2.2c6.3 0 8.8-0.3 8.8-1.3c0-0.6-1.7-1.5-3.8-1.9c-2-0.4-7.8-0.8-12.7-0.8c-4.9 0-8.5-0.3-8.1-0.8c0.4-0.4 6.9-1.2 14.4-1.9c7.5-0.6 20.4-1.1 28.7-1zm95.2 4.7c0.4 0 0.4 2.7 0 6c-0.4 3.3-1.5 7.5-2.4 9.2c-0.8 1.8-2.8 4.5-4.2 6c-2.5 2.5-3.1 2.6-9.1 2.2c-3.6-0.3-7.1-0.7-7.8-1c-0.8-0.2-0.9-0.9-0.4-1.7c0.5-0.6 1.2-2.7 1.5-4.5c0.6-3.2 0.6-3.2-3.1-3.2c-2.1 0-4.4-0.5-5.2-1c-1.1-0.7 0-1 4-1c3-0.1 7.5-0.4 10-0.8c2.9-0.5 5.7-1.8 8-3.9c1.9-1.7 4-2.9 4.7-2.7c0.7 0.2 1.7-0.5 2.3-1.6c0.6-1.1 1.3-2 1.7-2zm-39.2 12c0.8 0 1.7 0.4 2 1c0.2 0.5 1.8 1 3.5 1c1.6 0 3 0.4 3 1c0 0.5-0.5 1-1 1c-0.6 0-1.5 1.3-2 3q-1 3-3 3c-1.1 0-2 0.4-2 1q0 1-2 0c-1.1-0.6-2.9-2.5-4-4.3c-1.1-1.7-2-3.5-2-4c0-0.4 1.1-0.7 2.5-0.7c1.3 0 2.7-0.5 3-1c0.3-0.6 1.2-1 2-1z" />
		<path id="Path 20" class="s14" d="m222.3 90c0.4 0 1.1 0.9 1.7 2c0.6 1.1 2 2.4 3.2 2.9c1.6 0.6 2.8 2.5 3.9 6.2c1 3 2 6.6 2.3 8.2c0.4 2 0.2 2.7-0.9 2.7c-0.8 0-2.6-1.2-4-2.7c-1.4-1.6-2.6-3.1-2.5-3.5c0-0.5-0.9-0.6-2-0.3c-1.9 0.5-2-0.1-2.3-7.5c-0.1-4.4 0.1-8 0.5-8zm3.9 96.5c0.5 0.3 0.7 0.9 0.4 1.5c-0.3 0.6-0.1 1 0.5 1c0.6 0 1.7 0.7 2.5 1.5q1.5 1.5 1 5c-0.4 2.7-0.1 3.6 1.1 3.8c1.1 0.1-0.3 1.5-3.7 3.9c-3 2-7.9 6.1-10.9 9c-3.1 2.9-7.9 8.1-16 17.8l-1.1-2.8c-0.5-1.5-0.9-3.1-0.8-3.7c0.1-0.6 0-1.2-0.1-1.5c-0.1-0.3-0.3-2.2-0.4-4.3c0-2.2-0.7-4.1-1.6-4.6c-1.2-0.7 0.2-2.5 6.5-8.8c4.4-4.4 11.1-10.3 14.9-13.1c3.7-2.8 7.2-4.9 7.7-4.7zm-32.9 165l4.1 7c2.2 3.9 5.4 8.8 7 11c1.7 2.2 4.8 5.8 6.9 8c3.6 3.7 3.8 4.1 2.4 5.8c-0.9 0.9-1.6 2.5-1.6 3.5c0 0.9-0.2 2.7-0.5 4c-0.3 1.2-1.2 2.2-2 2.2c-0.8 0-1.5 0.8-1.5 1.8c-0.1 1.1-2.7-1.1-7.7-6.3c-4.1-4.4-8.8-9.8-10.4-12c-2.5-3.6-2.7-4.2-1.4-6c0.8-1.1 1.5-1.4 1.5-0.8c0 0.7 0.3 1.3 0.7 1.3c0.5 0 0.9-0.8 1-1.8c0.1-0.9 0.4-5.3 0.8-9.7z" />
		<path id="Path 21" class="s15" d="m302.7 271h8.2c4.4 0 8.3 0.4 8.6 1c0.3 0.6-0.2 1.7-1 2.5c-0.8 0.8-1.5 1.9-1.5 2.5c0 0.6 2.6 1.3 5.8 1.6c3.1 0.3 6.2 0.1 6.7-0.4c0.6-0.5 2.5-1.2 4.3-1.6c1.7-0.3 3.4-1.3 3.7-2.1c0.4-1.1 1.7-0.4 5.3 2.8c2.6 2.4 5.8 4.9 7.2 5.7c1.4 0.7 3.6 1.6 5 2c2.4 0.6 2.4 0.6-1.5 2.9c-3.8 2.2-4.8 2.3-24.5 2.1c-11.3-0.1-20.8-0.3-21.2-0.6c-0.5-0.2-0.1-1.4 0.7-2.6c0.8-1.3 1.5-3.8 1.4-5.7c-0.1-2.4-1.1-4.3-3.7-6.7zm-47.6 25h6.4c3.6 0 6.5 0.3 6.5 0.7c0 0.4-1.2 1.8-2.5 3c-1.7 1.5-2.5 3.3-2.5 5.5c0 2.3 1 4.2 6.5 9.8h-11.5c-6.3 0-12.2-0.4-13-0.9c-1.3-0.8-1.2-1 0.3-1.5c0.9-0.3 2.6-2.7 3.7-5.1c1.3-2.9 2.7-4.5 3.8-4.5c0.9-0.1 2.3-0.4 3-0.8c0.9-0.5 1-1.4 0.3-3.5zm-22.8 53c3.8 0 6.7 0.5 6.7 1c0 0.6 2.4 1 5.3 1c2.8 0 5.8 0.4 6.5 0.8c1 0.5 1.1 1.5 0.6 3.2c-0.4 1.4-1.8 3.8-5.4 8h-16c-9.7 0-16.2-0.4-16.5-1c-0.3-0.6 1.1-1 3.3-1c2.6 0 4.3-0.8 5.7-2.3c1.1-1.2 2.8-3.4 3.7-4.7c1.3-1.9 1.4-2.8 0.5-3.7c-1-1.1 0.1-1.3 5.6-1.3z" />
		<path id="Path 22" class="s16" d="m298.8 271c1.5 0 4.2 0.9 5.9 2c1.8 1.1 3.3 2.4 3.3 3c0 0.6-1.1 0.5-2.8-0.2c-1.5-0.7-3.8-1.8-5.2-2.5c-1.4-0.6-2.8-1-3.3-0.7c-0.4 0.2-0.7 0-0.7-0.6c0-0.6 1.2-1 2.7-1zm-90.5 20c1.7 0 2.4 0.6 2.3 1.9c0 1.4-0.8 2-2.7 2.3c-1.5 0.2-2.8 0-2.8-0.4c0-0.5 0.4-1 1-1.3c0.5-0.3 0.7-0.9 0.4-1.5c-0.3-0.6 0.5-1 1.8-1z" />
		<path id="Path 23" class="s17" d="m393.9 309c0.2 0 0.1 5.1-0.2 11.3c-0.3 6.1-1.1 13-1.7 15.2c-0.7 2.4-3.1 5.8-5.9 8.6c-4.5 4.5-4.8 4.6-12.6 5.3c-4.4 0.4-9.1 0.8-10.5 0.8c-1.4 0.1-5.4 0-9-0.2c-3.6-0.1-5.5-0.4-4.2-0.6c1.2-0.2 2.2-0.8 2.2-1.4c0-0.6 1.5-2.5 3.3-4.3c1.7-1.8 5.1-4.5 7.5-6c2.3-1.5 4.1-2.9 4-3.2c-0.2-0.2-3.7 0.3-7.8 1.1c-4.1 0.9-7.8 1.7-8.2 2c-0.5 0.2-0.8 0.2-0.8-0.1c0-0.3 0.9-1.5 2.1-2.7c1.1-1.3 3.2-3.5 4.7-5c1.9-2 3.7-2.8 6.2-2.8c1.9 0 5.3-0.4 7.4-0.8c2.1-0.4 4.1-1.4 4.5-2.2c0.3-0.8 2.8-3.7 5.6-6.3c2.7-2.7 6.8-5.7 9-6.8c2.2-1 4.2-1.9 4.4-1.9z" />
		<path id="Path 24" class="s18" d="m298 233.5c26.7 0 37.5 0.1 24 0.2c-13.5 0.2-35.3 0.2-48.5 0c-13.2-0.1-2.2-0.2 24.5-0.2zm0 4c27.8 0 39.3 0.1 25.5 0.2c-13.8 0.2-36.5 0.2-50.5 0c-14-0.1-2.8-0.2 25-0.2zm1.5 76.9c15.9 0 22.7 0.2 15 0.3c-7.7 0.2-20.8 0.2-29 0c-8.3-0.1-1.9-0.3 14-0.3z" />
		<path id="Path 25" class="s6" d="m262.8 294.1c4.5 0 8.2 0.2 8.2 0.6c0 0.5-3 0.7-6.8 0.5c-3.7-0.2-7.4-0.5-8.2-0.6c-0.8-0.2 2.2-0.4 6.7-0.5zm73.8 0.3c4.9 0 7.2 0.1 5 0.3c-2.2 0.2-6.3 0.2-9 0c-2.8-0.2-0.9-0.3 4-0.3zm58.2 7.1c0.2 3.3 0.2 9.1 0 13c-0.2 3.9-0.3 1.1-0.3-6c0-7.1 0.1-10.3 0.3-7zm-112.2-3.1c5.5 0 8 0.1 5.5 0.3c-2.5 0.2-7 0.2-10 0c-3-0.2-1-0.3 4.5-0.3zm3 3c7.7 0 10.6 0.2 6.5 0.3c-4.1 0.2-10.4 0.2-14 0c-3.6-0.2-0.2-0.3 7.5-0.3zm84 63c7.1 0 10.3 0.1 7 0.3c-3.3 0.2-9.1 0.2-13 0c-3.9-0.2-1.1-0.3 6-0.3z" />
		<path id="Path 26" class="s19" d="m298.5 299c16.3 0 25.5 0.4 25.5 1c0 0.6-9.2 1-25.5 1c-16.3 0-25.5-0.4-25.5-1c0-0.6 9.2-1 25.5-1zm-0.3 5c16.5 0 25.8 0.4 25.8 1c0 0.7-8.7 0.8-25.3 0.4c-13.8-0.4-25.4-0.8-25.7-1.1c-0.3-0.2 11.1-0.3 25.3-0.3zm19.7 11.4c5.2 0 7.2 0.1 4.5 0.3c-2.8 0.2-7 0.2-9.5 0c-2.5-0.2-0.2-0.3 5-0.3z" />
		<path id="Path 27" class="s20" d="m335.9 295c4.6 0 8.2 0.2 8 0.4c-0.2 0.3-3.6 0.6-7.6 0.8c-3.9 0.2-7.5-0.1-8-0.5c-0.4-0.4 3-0.7 7.6-0.7zm-51.4 11.4c6.6 0 9.5 0.1 6.5 0.3c-3 0.2-8.4 0.2-12 0c-3.6-0.2-1.1-0.3 5.5-0.3zm85 57c6.6 0 9.5 0.1 6.5 0.3c-3 0.2-8.4 0.2-12 0c-3.6-0.2-1.1-0.3 5.5-0.3z" />
		<path id="Path 28" class="s21" d="m414.5 181.2h7.5c5.3-0.1 7 0.1 5.8 0.8c-1.1 0.6-4 0.7-7.5 0.1z" />
		<path id="Path 29" class="s7" d="m307.5 286c0.2 0 0.2 1.1-0.5 5h20.1c17.8 0 19.9 0.2 18.5 1.5c-1 1.1-3.7 1.5-9.5 1.5c-6.9 0-8.2 0.3-8.5 1.8c-0.2 0.9-0.4 0.5-0.6-3.8l-24.2-0.5l2.2-2.8c1.2-1.5 2.3-2.7 2.5-2.7zm-15.8 3c0.5-0.1 1.5 0.6 2.3 1.5c1.4 1.4 0.5 1.6-10.3 1.5c-6.8 0-11.9 0.4-12.2 1c-0.3 0.6-4 1-8.3 1c-5.8 0.1-8.1-0.3-9.2-1.5c-1.4-1.4 0.2-1.6 17.8-1.5c12.1 0 19.2-0.4 19.2-1c0-0.6 0.3-1 0.7-1zm99.8 2c1.8 0 2.4 0.4 2 1.5c-0.3 0.8-0.1 1.5 0.5 1.5c0.6 0 1 0.3 1 0.7c0 0.5-1.4 0.7-3 0.5c-2.2-0.1-3-0.7-3-2.2c0-1.5 0.7-2 2.5-2zm-121.9 5c0.2 0 1.1 0.7 1.9 1.5c0.8 0.8 1.3 2.2 1 3c-0.4 1.3 1.7 1.5 15 1.5c9.7 0 15.5 0.4 15.5 1c0 0.6-6.2 1-16.7 0.9c-9.3-0.1-18 0.2-19.5 0.5c-2.3 0.5-2.8 0.2-2.9-1.3c-0.1-1 1.1-3 2.6-4.5c1.5-1.4 2.9-2.6 3.1-2.6zm38.4 2.4c9.1 0 12.9 0.2 8.5 0.3c-4.4 0.2-11.8 0.2-16.5 0c-4.7-0.1-1.1-0.3 8-0.3z" />
		<path id="Path 30" class="s22" d="m357.5 51.4c6.6 0 9.5 0.1 6.5 0.3c-3 0.2-8.4 0.2-12 0c-3.6-0.2-1.1-0.3 5.5-0.3z" />
		<path id="Path 31" class="s23" d="m373.3 283.1c3.1 0 7.2 0.5 8.9 1.2c1.8 0.8 4.1 2.6 5 4c1.2 1.8 1.8 4.6 1.8 8.2c0 3-0.5 5.7-1 6c-0.6 0.3-2.2 0-3.8-0.5c-2.5-1-2.7-1.3-2.4-6.3c0.2-3.8-0.1-5.7-1.4-7c-0.9-0.9-2.3-1.7-3-1.7c-0.8 0-1.4-0.5-1.4-1c0-0.6-2.2-0.7-6-0.3c-4.3 0.6-6.1 0.5-6.3-0.4c-0.1-0.6 0.7-1.4 1.8-1.6c1.1-0.3 4.6-0.5 7.7-0.6zm-7.5 51c0.7 0 1.3 0.1 1.3 0.4c0 0.3-1.9 1.7-4.3 3.2c-2.3 1.5-5.6 4.1-7.3 5.7c-1.7 1.7-3.3 3.8-3.6 4.6c-0.3 0.8-0.8-0.3-1.9-6.5l-14.2 0.3c-8.5 0.1-14.6-0.2-15.2-0.8q-1-0.9 2-2.1c2-0.7 7-0.9 14.7-0.5c6.5 0.3 11.8 0.3 11.8-0.2c0-0.4 0.8-0.8 1.7-0.9c1-0.2 4.5-0.9 7.8-1.7c3.3-0.7 6.6-1.4 7.2-1.5z" />
		<path id="Path 32" fill-rule="evenodd" class="s24" d="m226 283c3 0 8.4 0.9 12 2c3.6 1.1 8.7 3.2 11.4 4.8c4.2 2.3 5.1 3.4 6.2 7.2c1 3.5 1 4.7 0.1 5.2c-0.7 0.4-10.5 0.8-21.9 0.8c-18.8 0-20.9-0.2-21.7-1.8c-0.5-0.9-1.1-3.5-1.2-5.7c-0.3-3.3-0.8-4.1-2.9-4.6c-2.3-0.6-2.2-0.7 0.7-0.8q3.3-0.1 4.3-2.1c0.6-1.1 2.5-2.7 4.2-3.5c1.8-0.8 5.8-1.4 8.8-1.5zm2 16h21c-0.4-4.6-1.6-6.2-4-7.8c-1.9-1.2-5.1-2.7-7-3.2c-1.9-0.5-4.9-1.2-6.6-1.6l-3.1-0.7zm-9.7-4.4c-0.8 4.4-0.8 4.5 2 4.5c2.7 0 2.7-0.2 2.7-6c0-3.4-0.4-6-0.9-6c-0.5 0-1.4 0.6-2 1.5c-0.6 0.8-1.4 3.5-1.8 6z" />
		<path id="Path 33" class="s25" d="m350.8 297.7c0.4 0.8 4.4 1.3 21.7 1.9l-11.3 0.2c-10.1 0.2-11.2 0-11.2-1.5q0-1.8 0.8-0.6zm-38.8 3.7c7.4 0 10.4 0.1 6.5 0.3c-3.9 0.2-9.9 0.2-13.5 0c-3.6-0.2-0.4-0.3 7-0.3zm-1.5 5c8.2 0 11.9 0.2 8 0.3c-3.9 0.2-10.6 0.2-15 0c-4.4-0.1-1.3-0.3 7-0.3z" />
		<path id="Path 34" class="s26" d="m290.8 289.2c0.1-0.1 0.2 0.3 0.2 0.8c0 0.6-7.1 0.9-39.5 0.6l19.5-0.6c10.7-0.3 19.6-0.7 19.7-0.8zm30 0.6c7.6 0.1 16.9 0.3 20.8 0.5c3.9 0.2-2.3 0.4-13.8 0.5c-11.4 0.1-20.7-0.1-20.7-0.5c0-0.5 6.2-0.7 13.7-0.5zm-59 5.3c4 0 7.3 0.2 7.3 0.7c0 0.4-2.4 0.6-5.2 0.4c-2.9-0.1-6.2-0.4-7.3-0.6c-1.1-0.2 1.3-0.4 5.2-0.5zm-56.8 36.9c0.4 0 0.6 2.4 0.3 5.3c-0.3 2.8-0.7 5.4-0.9 5.7c-0.2 0.3-0.3-2.1-0.3-5.2c0-3.2 0.4-5.8 0.9-5.8zm25.1 31.4c7.4 0 10.3 0.1 6.5 0.3c-3.9 0.2-9.9 0.2-13.5 0c-3.6-0.2-0.4-0.3 7-0.3z" />
		<path id="Path 35" class="s27" d="m364.1 285.4c0.4 0.6 0.6 1.4 0.3 1.9c-0.2 0.4-1.1 0.7-1.9 0.7c-0.8 0-3.2 0.8-5.3 1.9c-2 1-4.2 2.5-4.9 3.2c-0.6 0.8-1.4 2.6-2.3 6.9h23v-7.5c0-6 0.3-7.5 1.5-7.5c0.8 0 1.7 0.7 2 1.5c0.3 0.8 0.5 4 0.5 7c0 5.2 0.1 5.5 2.5 5.5c1.4 0 2.3 0.5 2 1c-0.3 0.6 0.7 1.4 2.2 1.9c1.9 0.7-4.3 0.9-18.7 0.8c-20.8-0.2-21.5-0.3-21.3-2.2c0-1.1 0.4-3.4 0.8-5c0.3-1.6 0.7-3 0.8-3.1c0.1 0 2.4-1.3 5.2-2.9c2.7-1.5 6.7-3.3 8.9-4c2.7-0.8 4.1-0.8 4.7-0.1z" />
		<path id="Path 36" class="s28" d="m388.5 50.4c8.3 0 11.9 0.2 8 0.3c-3.9 0.2-10.6 0.2-15 0c-4.4-0.1-1.3-0.3 7-0.3zm-158.5 314c7.4 0 10.3 0.1 6.5 0.3c-3.8 0.2-9.9 0.2-13.5 0c-3.6-0.2-0.4-0.3 7-0.3z" />
		<path id="Path 37" class="s29" d="m377.8 287c0.4 0 1.5 0.8 2.5 1.8c1.2 1.1 1.8 3.2 1.7 6c0 3.8-0.2 4.2-2.5 4.2c-2.4 0-2.5-0.3-2.5-6c0-3.3 0.3-6 0.7-6z" />
		<path id="Path 38" class="s30" d="m265.5 338.2c3.9-0.1 8.7 0.2 10.8 0.6c2 0.4 3.7 1.3 3.7 2c0 0.9-2.4 1.2-8.5 1.2c-7.6 0-8.7 0.2-10.5 2.3c-1 1.2-1.9 2.7-1.9 3.2c-0.1 0.6-1.8 1.3-3.8 1.7c-2.1 0.4-4.4 0.8-5.1 0.8c-0.6 0-1.2-1-1.2-2.2c0-1.3 0.4-3.8 1-5.5c0.9-2.9 1.5-3.3 4.7-3.6c2.1-0.2 6.9-0.4 10.8-0.5z" />
		<path id="Path 39" class="s31" d="m299 255.4c9.6 0 13.4 0.2 8.5 0.3c-4.9 0.2-12.8 0.2-17.5 0c-4.7-0.1-0.6-0.3 9-0.3zm-93.3 46.6c0.2 3.6 0.2 9.9 0 14c-0.1 4.1-0.3 1.2-0.3-6.5c0-7.7 0.1-11.1 0.3-7.5z" />
		<path id="Path 40" class="s32" d="m372.7 289.5c0.2 2.2 0.2 5.6 0 7.5c-0.2 1.9-0.4 0.1-0.4-4c0-4.1 0.2-5.7 0.4-3.5z" />
		<path id="Path 41" class="s1" d="m317 310.3c4.1 0 5.7 0.2 3.5 0.4c-2.2 0.2-5.6 0.2-7.5 0c-1.9-0.2-0.1-0.4 4-0.4z" />
		<path id="Path 42" class="s13" d="m298 310.4c6.9 0 9.6 0.1 6 0.3c-3.6 0.2-9.2 0.2-12.5 0c-3.3-0.2-0.4-0.3 6.5-0.3z" />
		<path id="Path 43" class="s18" d="m316.5 311.4c4.9 0 7.2 0.1 5 0.3c-2.2 0.2-6.3 0.2-9 0c-2.8-0.2-0.9-0.3 4-0.3z" />
		<path id="Path 44" class="s6" d="m292 308.4c10.7 0 15 0.2 9.5 0.3c-5.5 0.2-14.3 0.2-19.5 0c-5.2-0.1-0.7-0.3 10-0.3z" />
		<path id="Path 45" class="s20" d="m298.7 309c14.1 0 25.4 0.2 25.2 0.4c-0.2 0.2-11.8 0.6-25.6 1c-16.6 0.4-25.3 0.3-25.3-0.4c0-0.6 9.2-1 25.7-1z" />
		<path id="Path 46" class="s21" d="m290.5 311.4c9.9 0 13.7 0.2 8.5 0.3c-5.2 0.2-13.3 0.2-18 0c-4.7-0.1-0.4-0.3 9.5-0.3z" />
		<path id="Path 47" class="s25" d="m249.5 297c0.3 0 0.5 0.7 0.5 1.5c0 1.3-1.8 1.5-22.5 1.1l10.8-0.3c6.3-0.2 10.7-0.7 10.7-1.3c0-0.6 0.2-1 0.5-1z" />
		<path id="Path 48" class="s32" d="m227.7 289.5c0.2 2.2 0.2 5.6 0 7.5c-0.2 1.9-0.4 0.1-0.4-4c0-4.1 0.2-5.7 0.4-3.5z" />
	</g>
</svg>